<?xml version="1.0" standalone="no"?>
<!DOCTYPE svg PUBLIC "-//W3C//DTD SVG 20010904//EN"
 "http://www.w3.org/TR/2001/REC-SVG-20010904/DTD/svg10.dtd">
<svg version="1.0" xmlns="http://www.w3.org/2000/svg"
 width="900.000000pt" height="810.000000pt" viewBox="0 0 900.000000 810.000000"
 preserveAspectRatio="xMidYMid meet">
<metadata>
Created by potrace 1.10, written by Peter Selinger 2001-2011
</metadata>
<g transform="translate(0.000000,810.000000) scale(0.100000,-0.100000)" stroke-width="42">
<path d="M1775 7708 c-11 -6 -46 -31 -77 -55 -31 -23 -60 -43 -64 -43 -4 0
-14 -7 -23 -15 -35 -32 -89 -75 -95 -75 -4 0 -70 -47 -146 -105 -77 -58 -143
-105 -146 -105 -5 0 -81 -56 -94 -70 -10 -10 -69 -50 -75 -50 -3 0 -14 -8 -24
-17 -10 -10 -34 -28 -52 -41 -19 -13 -94 -67 -167 -120 -73 -53 -161 -117
-196 -142 -35 -24 -69 -53 -76 -63 -12 -21 -33 0 329 -341 75 -71 195 -186
268 -257 72 -71 135 -129 139 -129 5 0 71 -61 149 -136 77 -75 199 -192 270
-260 240 -228 698 -662 980 -929 154 -146 399 -379 545 -518 146 -139 279
-264 296 -277 18 -14 151 -139 295 -278 145 -139 323 -309 394 -377 72 -68
259 -246 418 -397 158 -150 404 -385 548 -523 143 -137 268 -255 279 -260 10
-6 142 -131 293 -278 151 -147 278 -267 282 -267 4 0 66 -58 139 -129 72 -71
192 -186 268 -257 399 -377 651 -615 801 -760 49 -46 93 -84 99 -84 5 0 27 14
48 30 21 17 41 30 45 30 6 0 65 44 102 75 6 5 35 26 63 45 58 39 236 167 320
230 30 22 84 62 119 88 36 26 88 64 115 85 28 20 61 42 74 49 12 6 22 15 22
20 0 4 6 8 14 8 7 0 19 7 27 16 12 15 100 78 141 101 11 6 23 15 27 20 10 13
89 73 98 73 12 1 53 37 52 47 0 4 -64 69 -141 143 -78 74 -205 197 -283 273
-77 75 -144 137 -149 137 -4 0 -67 58 -139 129 -73 70 -199 192 -282 270 -368
348 -641 608 -836 795 -74 72 -198 190 -274 261 -77 72 -200 188 -275 259
-193 184 -403 384 -565 536 -77 73 -199 190 -272 261 -72 71 -135 129 -139
129 -5 0 -72 62 -149 138 -135 131 -232 223 -555 528 -80 75 -202 192 -272
260 -69 68 -129 124 -133 124 -4 0 -132 122 -285 270 -153 149 -281 270 -285
270 -4 0 -128 116 -276 258 -147 141 -397 379 -554 527 -432 409 -856 811
-895 850 -40 39 -38 38 -65 23z"/>
</g>
</svg>
