<?xml version="1.0" standalone="no"?>
<!DOCTYPE svg PUBLIC "-//W3C//DTD SVG 20010904//EN"
 "http://www.w3.org/TR/2001/REC-SVG-20010904/DTD/svg10.dtd">
<svg version="1.0" xmlns="http://www.w3.org/2000/svg"
 width="900.000000pt" height="810.000000pt" viewBox="0 0 900.000000 810.000000"
 preserveAspectRatio="xMidYMid meet">
<metadata>
Created by potrace 1.10, written by Peter Selinger 2001-2011
</metadata>
<g transform="translate(0.000000,810.000000) scale(0.100000,-0.100000)" stroke-width="42">
<path d="M7140 7686 c-47 -47 -543 -518 -895 -851 -157 -148 -407 -386 -554
-527 -148 -142 -272 -258 -276 -258 -4 0 -132 -121 -285 -270 -153 -148 -281
-270 -285 -270 -4 0 -64 -56 -133 -124 -70 -68 -192 -185 -272 -260 -323 -305
-420 -397 -555 -528 -77 -76 -144 -138 -149 -138 -4 0 -67 -58 -139 -129 -73
-71 -195 -188 -272 -261 -151 -142 -350 -331 -566 -536 -74 -71 -198 -187
-274 -259 -76 -71 -200 -189 -274 -261 -194 -186 -467 -446 -836 -795 -82 -78
-209 -200 -282 -270 -72 -71 -135 -129 -139 -129 -5 0 -72 -62 -149 -137 -78
-76 -205 -199 -283 -273 -77 -74 -141 -139 -141 -143 -1 -10 40 -46 52 -47 9
0 88 -60 98 -73 4 -5 16 -14 27 -20 41 -23 129 -86 141 -101 8 -9 20 -16 27
-16 8 0 14 -4 14 -8 0 -5 10 -14 23 -20 12 -7 45 -29 73 -49 27 -21 79 -59
115 -85 35 -26 89 -66 119 -88 84 -63 262 -191 320 -230 28 -19 57 -40 63 -45
37 -31 96 -75 102 -75 4 0 24 -13 45 -30 21 -16 43 -30 48 -30 6 0 50 38 99
84 48 47 156 149 239 228 141 134 211 200 562 532 76 71 196 187 268 257 72
71 135 129 139 129 4 0 131 120 282 267 151 147 283 272 293 278 11 5 136 123
279 260 144 138 390 373 548 523 439 417 527 501 812 774 144 139 277 264 295
278 17 13 150 138 296 277 146 139 391 372 545 518 282 267 740 701 980 929
72 68 193 185 270 260 78 75 144 136 149 136 4 0 67 58 139 129 73 71 193 186
268 257 362 341 341 320 329 341 -7 10 -41 39 -76 63 -35 25 -123 89 -196 142
-73 53 -148 107 -167 120 -18 13 -42 31 -52 41 -10 9 -21 17 -24 17 -6 0 -65
40 -75 50 -13 14 -89 70 -94 70 -3 0 -69 47 -146 105 -76 58 -142 105 -146
105 -6 0 -60 43 -95 75 -9 8 -19 15 -23 15 -4 0 -33 20 -64 43 -50 39 -94 67
-104 67 -2 0 -19 -16 -38 -34z"/>
</g>
</svg>
