<?xml version="1.0" standalone="no"?>
<!DOCTYPE svg PUBLIC "-//W3C//DTD SVG 20010904//EN"
 "http://www.w3.org/TR/2001/REC-SVG-20010904/DTD/svg10.dtd">
<svg version="1.0" xmlns="http://www.w3.org/2000/svg"
 width="900.000000pt" height="663.000000pt" viewBox="0 0 900.000000 663.000000"
 preserveAspectRatio="xMidYMid meet">
<metadata>
Created by potrace 1.10, written by Peter Selinger 2001-2011
</metadata>
<g transform="translate(0.000000,663.000000) scale(0.100000,-0.100000)"
fill="#000000" stroke="none">
<path d="M595 5738 c-3 -7 -4 -1093 -3 -2413 l3 -2400 3825 -3 c2104 -1 3835
0 3848 3 l22 5 0 2404 c0 2183 -1 2404 -16 2410 -9 3 -1739 6 -3845 6 -3055 0
-3831 -3 -3834 -12z m7593 -2383 c1 -1259 0 -2300 -3 -2313 l-5 -22 -3748 2
-3747 3 -3 2300 c-1 1265 0 2306 3 2313 3 10 759 12 3752 10 l3748 -3 3 -2290z"/>
<path d="M2780 4231 c-11 -21 -15 -1386 -4 -1415 5 -14 27 -16 140 -16 121 0
134 2 134 18 0 9 0 231 0 492 0 277 4 481 9 489 8 12 11 8 16 -15 3 -16 10
-43 15 -60 6 -16 14 -50 20 -75 5 -24 16 -71 25 -104 26 -103 44 -178 59 -240
48 -197 117 -463 126 -483 10 -22 12 -23 152 -20 l143 3 13 40 c8 22 20 65 27
95 7 30 20 84 29 120 9 36 21 85 26 109 6 25 14 59 19 75 6 17 16 58 25 91 40
163 48 193 61 236 8 26 15 56 15 68 0 11 6 38 14 58 8 21 17 55 21 77 3 21 9
35 13 31 4 -4 9 -230 12 -503 l5 -497 135 0 135 0 3 709 c1 515 -1 713 -9 722
-18 22 -396 20 -427 -2 -12 -8 -22 -23 -22 -32 0 -9 -6 -37 -14 -62 -8 -25
-22 -74 -31 -110 -10 -36 -24 -89 -31 -117 -25 -94 -55 -205 -90 -343 -8 -30
-21 -75 -28 -100 -8 -25 -17 -64 -21 -87 -10 -65 -38 -51 -55 28 -5 24 -16 69
-24 99 -45 167 -59 218 -67 250 -8 34 -25 100 -54 205 -8 28 -21 75 -28 105
-36 140 -47 168 -70 174 -12 3 -108 6 -214 6 -180 0 -193 -1 -203 -19z"/>
<path d="M4461 4236 c-8 -9 -10 -207 -9 -722 l3 -709 139 -3 c93 -2 143 1 152
9 12 10 14 126 14 705 0 681 0 694 -20 714 -18 18 -33 20 -144 20 -92 0 -126
-3 -135 -14z"/>
<path d="M4947 4243 c-15 -15 -3 -40 80 -166 47 -73 100 -154 118 -182 18 -27
71 -110 120 -184 48 -74 90 -143 93 -153 3 -11 -27 -65 -84 -150 -49 -73 -91
-138 -94 -144 -3 -6 -53 -82 -111 -170 -172 -259 -181 -273 -174 -284 4 -6 70
-10 176 -10 195 0 175 -9 253 116 54 87 111 176 183 286 l47 71 19 -24 c23
-30 126 -187 192 -294 27 -44 62 -97 78 -117 l29 -38 169 0 c137 0 171 3 175
14 3 8 -31 69 -78 138 -46 68 -85 128 -87 133 -2 6 -16 26 -31 45 -15 19 -29
40 -31 45 -2 6 -57 90 -122 187 l-119 177 23 38 c13 21 48 76 78 123 30 47 70
110 89 140 90 140 123 191 174 270 30 47 57 92 61 101 12 33 -14 39 -168 39
-178 0 -157 13 -261 -158 -143 -234 -170 -276 -180 -279 -9 -3 -58 69 -137
202 -7 11 -15 22 -18 25 -3 3 -25 38 -49 78 -23 40 -55 86 -70 102 l-28 30
-154 0 c-85 0 -158 -3 -161 -7z"/>
</g>
</svg>
