 <svg  version="1.0" xmlns="http://www.w3.org/2000/svg"  width="900.000000pt" height="591.000000pt" viewBox="0 0 900.000000 591.000000"  preserveAspectRatio="xMidYMid meet">  <g transform="translate(0.000000,591.000000) scale(0.100000,-0.100000)" fill="#bfbfbf" stroke="none"> <path d="M513 5502 c-15 -9 -20 -512 -28 -2546 -3 -846 -2 -1273 5 -1280 6 -6 10 -224 10 -622 0 -356 4 -615 9 -618 6 -4 6597 -9 8049 -6 10 0 12 483 9 2423 -1 1332 -5 2471 -7 2530 -4 81 -9 110 -20 117 -18 12 -8009 13 -8027 2z"/> </g> </svg> 