<?xml version="1.0" standalone="no"?>
<!DOCTYPE svg PUBLIC "-//W3C//DTD SVG 20010904//EN"
 "http://www.w3.org/TR/2001/REC-SVG-20010904/DTD/svg10.dtd">
<svg version="1.0" xmlns="http://www.w3.org/2000/svg"
 width="900.000000pt" height="858.000000pt" viewBox="0 0 900.000000 858.000000"
 preserveAspectRatio="xMidYMid meet">
<g transform="translate(0.000000,858.000000) scale(0.100000,-0.100000)"
stroke-width="42">
<path d="M4503 8156 c-15 -18 -44 -55 -63 -80 -19 -26 -50 -65 -67 -86 -18
-20 -33 -45 -33 -53 0 -9 -6 -20 -13 -24 -7 -4 -25 -26 -40 -48 -50 -73 -78
-110 -101 -135 -13 -14 -26 -32 -30 -40 -15 -33 -34 -62 -62 -93 -16 -17 -33
-39 -39 -48 -17 -28 -74 -103 -90 -120 -8 -9 -15 -22 -15 -29 0 -7 -15 -30
-32 -51 -85 -100 -147 -186 -148 -202 0 -5 -13 -20 -30 -34 -16 -13 -30 -32
-30 -40 0 -9 -16 -31 -35 -50 -19 -19 -35 -39 -35 -44 0 -12 -26 -47 -77 -108
-18 -21 -33 -43 -33 -48 0 -5 -13 -22 -30 -38 -16 -16 -30 -34 -30 -40 0 -11
-11 -27 -69 -98 -18 -23 -38 -52 -44 -64 -6 -13 -14 -23 -18 -23 -4 0 -11 -10
-15 -22 -4 -13 -21 -40 -38 -60 -86 -103 -145 -185 -146 -201 0 -5 -13 -20
-30 -34 -16 -13 -30 -33 -30 -43 0 -11 -6 -23 -14 -27 -13 -7 -45 -51 -100
-133 -13 -19 -33 -44 -45 -54 -11 -11 -21 -24 -21 -31 0 -6 -13 -24 -30 -40
-16 -16 -30 -34 -30 -40 0 -11 -14 -31 -61 -89 -27 -33 -89 -124 -89 -131 0
-2 -34 -49 -75 -104 -41 -54 -75 -103 -75 -108 0 -4 -12 -21 -26 -37 -30 -32
-94 -124 -94 -135 0 -4 -13 -20 -30 -36 -16 -16 -30 -33 -30 -38 0 -5 -9 -21
-21 -35 -69 -90 -96 -129 -102 -144 -4 -10 -11 -18 -17 -18 -5 0 -10 -6 -10
-14 0 -8 -11 -28 -25 -44 -14 -17 -25 -34 -25 -38 0 -5 -14 -22 -31 -39 -17
-16 -35 -39 -40 -50 -12 -26 -38 -66 -67 -102 -52 -64 -82 -106 -82 -117 -1
-6 -14 -22 -30 -36 -17 -13 -30 -31 -30 -40 0 -10 -9 -25 -20 -35 -11 -10 -20
-23 -20 -30 0 -7 -10 -20 -21 -31 -12 -10 -33 -37 -48 -58 -27 -41 -30 -44
-75 -116 -15 -25 -34 -49 -40 -55 -7 -5 -34 -41 -60 -80 -25 -38 -60 -88 -77
-110 -16 -22 -37 -51 -46 -65 -10 -14 -29 -39 -43 -57 -14 -17 -41 -57 -60
-87 -19 -31 -38 -56 -42 -56 -3 0 -21 -24 -39 -52 -78 -124 -104 -161 -128
-182 -11 -11 -21 -24 -21 -31 0 -7 -9 -20 -20 -30 -11 -10 -20 -25 -20 -35 0
-9 -13 -27 -30 -40 -16 -14 -29 -30 -30 -36 0 -12 -37 -65 -86 -122 -17 -21
-34 -44 -38 -52 -13 -28 -31 -55 -76 -114 -25 -32 -52 -70 -60 -85 -8 -14 -21
-30 -28 -34 -6 -4 -12 -13 -12 -19 0 -9 -15 -31 -99 -140 -12 -14 -21 -30 -21
-35 0 -5 -14 -22 -30 -38 -17 -16 -30 -33 -30 -38 0 -5 -14 -27 -31 -48 -35
-45 -34 -83 3 -95 12 -4 33 -20 47 -35 14 -16 33 -29 42 -29 10 0 29 -14 42
-30 14 -17 29 -30 34 -30 16 -1 102 -63 202 -147 21 -18 43 -33 48 -33 5 0 18
-7 28 -15 11 -8 47 -35 80 -60 33 -25 75 -58 93 -73 19 -15 38 -29 44 -31 25
-9 94 -60 187 -139 21 -17 43 -32 48 -32 5 0 24 -16 43 -35 19 -19 43 -35 53
-35 10 0 20 -7 23 -15 4 -8 12 -15 19 -15 8 0 35 -18 62 -40 92 -75 113 -92
148 -116 20 -13 39 -24 42 -24 4 0 18 -11 32 -24 26 -25 60 -50 136 -103 22
-15 44 -33 48 -40 4 -7 16 -13 27 -13 10 0 30 -13 43 -30 14 -16 31 -30 38
-30 6 0 29 -15 49 -33 21 -17 55 -43 75 -57 20 -14 54 -40 75 -58 20 -17 42
-32 47 -32 5 0 22 -14 38 -30 16 -17 34 -30 40 -30 11 0 70 -41 105 -73 8 -8
29 -22 45 -33 17 -10 43 -31 59 -46 17 -15 35 -28 40 -29 6 0 31 -16 56 -35
25 -18 63 -46 84 -61 22 -16 54 -40 70 -55 17 -16 36 -28 43 -28 6 0 16 -6 20
-12 4 -7 20 -20 35 -28 15 -8 72 -50 127 -93 55 -42 107 -77 114 -77 8 0 20 7
27 15 7 8 20 15 29 15 9 0 83 68 164 150 82 83 154 150 159 150 6 0 82 69 169
153 87 83 233 222 324 307 91 85 239 224 328 307 89 84 232 218 317 298 85 80
230 217 321 305 91 88 171 160 176 160 6 0 77 67 159 150 82 82 155 150 163
150 7 0 76 63 153 140 77 77 144 140 149 140 6 0 80 70 165 155 85 85 160 155
165 155 6 0 60 50 121 110 60 61 115 110 121 110 7 0 73 61 147 135 74 74 139
135 144 135 5 0 84 72 175 160 91 88 234 225 316 304 83 80 166 156 185 169
19 13 94 83 165 156 72 72 146 142 166 155 19 13 115 103 211 200 97 97 181
176 186 176 12 0 262 249 262 261 0 12 -64 69 -96 86 -12 7 -38 26 -56 43 -18
16 -38 30 -46 30 -7 0 -15 7 -18 15 -4 8 -12 15 -19 15 -8 0 -34 17 -59 38
-73 60 -104 82 -113 82 -5 0 -22 14 -38 30 -16 17 -34 30 -40 30 -6 0 -24 14
-40 30 -16 17 -32 30 -37 30 -10 0 -94 59 -132 93 -17 15 -34 27 -38 27 -14 0
-90 55 -187 138 -21 17 -43 32 -48 32 -6 0 -18 9 -28 20 -10 11 -24 20 -31 20
-8 0 -27 14 -42 30 -16 17 -33 30 -39 30 -5 0 -27 15 -49 33 -60 50 -112 87
-121 87 -5 0 -22 14 -38 30 -16 17 -33 30 -38 30 -10 0 -47 27 -106 78 -21 17
-43 32 -48 32 -5 0 -24 16 -43 35 -19 19 -43 35 -53 35 -10 0 -20 7 -23 15 -3
8 -16 17 -27 21 -12 4 -39 21 -59 38 -59 50 -95 76 -105 76 -5 0 -22 14 -38
30 -16 17 -33 30 -38 30 -5 0 -27 15 -48 33 -61 51 -96 77 -108 77 -5 0 -25
16 -44 35 -19 19 -41 35 -50 35 -8 0 -27 14 -40 30 -14 17 -31 30 -37 30 -12
0 -38 18 -108 75 -56 45 -100 75 -112 75 -5 0 -20 12 -33 26 -12 14 -34 32
-48 39 -14 8 -44 29 -67 47 -70 57 -86 68 -97 68 -6 0 -24 14 -40 30 -16 17
-33 30 -38 30 -5 0 -27 15 -47 33 -21 17 -55 43 -75 57 -20 14 -54 40 -75 58
-20 17 -43 32 -50 32 -7 0 -20 7 -29 15 -17 17 -93 74 -120 90 -9 6 -30 23
-46 38 -17 16 -39 33 -50 38 -27 12 -67 39 -102 67 -64 52 -106 82 -117 82 -6
1 -22 14 -36 30 -13 17 -32 30 -41 30 -10 0 -28 13 -41 29 -14 16 -34 32 -45
35 -11 4 -28 15 -38 26 -10 11 -22 20 -28 20 -5 0 -27 15 -48 33 -138 116
-139 116 -176 73z"/>
</g>
</svg>
