<?xml version="1.0" standalone="no"?>
<!DOCTYPE svg PUBLIC "-//W3C//DTD SVG 20010904//EN"
 "http://www.w3.org/TR/2001/REC-SVG-20010904/DTD/svg10.dtd">
<svg version="1.0" xmlns="http://www.w3.org/2000/svg"
 width="900.000000pt" height="864.000000pt" viewBox="0 0 900.000000 864.000000"
 preserveAspectRatio="xMidYMid meet">
<g transform="translate(0.000000,864.000000) scale(0.100000,-0.100000)"
stroke-width="42">
<path d="M4153 8398 c-70 -57 -227 -180 -318 -248 -60 -45 -210 -164 -215
-170 -3 -3 -41 -34 -85 -68 -44 -34 -96 -75 -115 -91 -19 -17 -40 -31 -47 -31
-7 0 -16 -6 -20 -13 -4 -7 -47 -43 -95 -80 l-87 -67 31 -48 c51 -76 151 -206
165 -215 7 -4 13 -12 13 -18 0 -5 34 -55 75 -109 41 -54 75 -102 75 -105 0 -6
60 -86 71 -95 4 -3 17 -21 31 -41 13 -20 35 -49 47 -65 12 -16 80 -108 151
-204 70 -96 140 -189 154 -206 14 -18 26 -34 26 -38 0 -9 93 -130 107 -139 7
-4 13 -12 13 -17 0 -9 248 -351 284 -392 8 -9 23 -29 33 -45 10 -15 83 -116
163 -223 80 -107 153 -206 162 -220 54 -79 82 -116 94 -123 8 -4 14 -12 14
-17 0 -5 41 -65 92 -132 50 -68 131 -177 180 -243 48 -66 162 -220 253 -343
91 -122 165 -225 165 -228 0 -4 15 -24 33 -45 43 -50 108 -136 130 -172 10
-16 85 -119 168 -228 82 -109 149 -202 149 -205 0 -3 25 -38 56 -78 30 -39
131 -174 224 -301 302 -410 321 -435 334 -435 8 0 19 7 26 15 7 8 17 15 22 15
6 0 24 12 42 26 56 46 207 154 215 154 5 0 14 7 21 15 12 15 38 33 150 109 25
16 49 36 53 43 4 7 13 13 18 13 6 0 37 20 69 45 32 25 63 45 70 45 6 0 13 7
16 15 4 8 10 15 15 15 5 0 45 26 88 58 44 31 131 95 195 140 107 77 115 85
104 105 -6 12 -78 110 -159 220 -82 109 -149 202 -149 207 0 5 -6 13 -14 17
-7 4 -23 23 -34 41 -11 19 -43 64 -71 100 -29 37 -108 144 -176 237 -69 94
-137 185 -152 203 -16 19 -30 39 -32 45 -2 7 -19 31 -38 53 -18 23 -46 59 -61
81 -15 23 -37 54 -50 69 -20 26 -176 238 -365 494 -34 47 -68 89 -74 93 -7 4
-13 12 -13 18 0 5 -61 90 -135 189 -74 99 -135 184 -135 189 0 6 -6 14 -13 18
-7 4 -34 37 -60 73 -81 112 -182 249 -313 425 -49 66 -98 134 -109 150 -10 17
-37 53 -60 80 -23 28 -45 58 -48 68 -4 9 -11 17 -17 17 -5 0 -10 5 -10 10 0 6
-75 110 -167 233 -91 122 -186 251 -211 286 -25 35 -51 71 -59 80 -36 41 -283
382 -283 391 0 5 -6 13 -13 17 -14 9 -107 130 -107 139 0 4 -12 20 -26 38 -14
17 -97 128 -185 246 -93 125 -168 216 -178 218 -11 2 -51 -23 -98 -60z"/>
<path d="M2795 7417 c-90 -66 -355 -263 -389 -290 -16 -12 -34 -24 -41 -27 -7
-3 -44 -29 -81 -58 -138 -106 -484 -362 -490 -362 -3 0 -35 -23 -71 -51 -35
-29 -81 -63 -101 -77 -20 -13 -41 -31 -45 -38 -4 -8 -12 -14 -18 -14 -5 0 -80
-53 -167 -118 -86 -65 -169 -125 -183 -134 -14 -9 -32 -23 -40 -30 -8 -8 -39
-31 -69 -52 -30 -21 -57 -41 -60 -46 -3 -4 -28 -23 -56 -41 -133 -88 -333
-245 -334 -262 0 -10 47 -82 105 -160 58 -78 181 -245 274 -372 219 -297 222
-301 416 -563 91 -122 165 -225 165 -228 0 -3 25 -38 56 -78 52 -66 160 -213
546 -739 84 -115 178 -241 209 -280 30 -40 58 -80 62 -89 3 -10 11 -18 17 -18
5 0 10 -5 10 -10 0 -6 5 -16 10 -23 16 -19 320 -430 365 -493 22 -32 47 -64
56 -73 8 -9 23 -29 34 -46 10 -16 72 -101 137 -188 65 -86 118 -162 118 -167
0 -5 6 -13 14 -17 7 -4 35 -39 61 -78 26 -38 59 -83 72 -100 14 -16 76 -100
138 -185 62 -85 132 -180 154 -210 180 -240 311 -422 311 -430 0 -5 6 -13 13
-17 16 -11 77 -90 77 -101 0 -5 11 -19 25 -32 l25 -23 47 33 c27 19 83 60 126
92 43 32 80 58 82 58 3 0 50 33 104 72 55 40 141 102 192 138 50 36 127 91
170 123 44 31 84 57 89 57 6 0 10 4 10 8 0 7 103 80 152 109 12 6 23 16 27 21
3 5 20 18 37 28 17 11 66 45 110 77 78 57 230 166 289 207 17 11 69 50 117 85
48 36 91 65 96 65 12 0 52 44 52 57 0 14 -94 156 -115 173 -8 7 -15 18 -15 25
0 7 -7 18 -15 25 -8 7 -41 51 -73 99 -33 48 -86 123 -118 167 -32 43 -76 104
-96 134 -37 55 -83 121 -151 217 -20 29 -37 55 -37 58 0 5 208 161 348 260 45
32 82 65 82 73 0 8 -13 31 -30 52 -16 21 -30 43 -30 48 0 6 -6 15 -14 19 -12
7 -104 134 -131 181 -5 10 -22 31 -37 47 -16 17 -28 33 -28 38 0 7 -38 59 -75
103 -5 7 -37 51 -70 98 -33 47 -102 142 -152 211 -51 69 -93 127 -93 130 0 3
-36 54 -80 113 -43 59 -89 121 -100 137 -11 17 -52 72 -90 124 -39 52 -70 97
-70 101 0 3 -8 15 -19 26 -10 11 -35 44 -56 74 -21 30 -58 82 -82 115 -24 33
-84 116 -133 185 -117 163 -131 183 -236 327 -49 67 -123 169 -164 227 -41 57
-105 146 -142 197 -38 51 -68 95 -68 98 0 4 -11 18 -24 32 -13 14 -34 41 -47
61 -13 20 -58 82 -99 138 -41 56 -79 109 -85 119 -5 9 -43 62 -83 117 -40 54
-106 146 -147 204 -41 58 -122 170 -180 250 -58 80 -133 182 -165 228 -33 45
-63 82 -67 81 -5 0 -21 -10 -38 -22z"/>
<path d="M8375 3699 c-27 -22 -60 -49 -71 -59 -12 -11 -25 -20 -28 -20 -4 0
-55 -36 -114 -80 -59 -43 -120 -89 -137 -100 -16 -12 -91 -66 -165 -120 -74
-55 -148 -108 -165 -120 -16 -11 -105 -77 -197 -145 -92 -69 -170 -125 -173
-125 -4 0 -124 -88 -335 -245 -76 -56 -327 -240 -369 -269 -25 -17 -116 -84
-203 -148 -87 -65 -162 -118 -166 -118 -5 0 -22 -13 -38 -30 -16 -16 -32 -30
-36 -30 -7 0 -63 -40 -313 -226 -11 -8 -78 -57 -150 -109 -71 -51 -153 -112
-181 -134 -28 -23 -55 -41 -59 -41 -4 0 -21 -12 -39 -26 -30 -25 -160 -122
-276 -205 -94 -68 -460 -335 -564 -411 -95 -70 -142 -104 -232 -167 -44 -30
-51 -36 -124 -100 l-44 -39 59 -88 c142 -211 177 -254 207 -254 10 0 64 34
121 75 56 41 120 88 142 103 22 16 94 69 160 118 66 49 131 97 145 106 51 35
112 79 123 89 7 5 71 53 142 105 72 52 148 108 170 125 22 16 90 65 150 108
61 44 135 98 165 121 104 77 321 235 398 289 42 30 81 60 85 68 4 7 12 13 18
13 5 0 55 34 109 75 54 41 102 75 105 75 6 0 78 54 104 78 7 7 26 21 40 30 14
9 60 41 101 72 41 31 87 63 101 72 14 9 33 23 40 30 26 24 98 78 104 78 3 0
51 34 105 75 54 41 104 75 109 75 6 0 14 6 18 13 4 8 43 38 85 68 77 54 294
212 398 289 30 23 105 77 165 120 61 44 135 98 165 120 202 150 272 200 280
200 5 0 13 6 17 14 4 7 31 29 58 47 84 56 289 210 308 231 17 20 16 22 -10 57
-15 20 -33 40 -40 44 -7 4 -13 13 -13 20 0 7 -26 45 -58 84 -31 40 -72 93 -90
118 -18 25 -38 45 -45 44 -7 0 -34 -18 -62 -40z"/>
</g>
</svg>
