<?xml version="1.0" standalone="no"?>
<!DOCTYPE svg PUBLIC "-//W3C//DTD SVG 20010904//EN"
 "http://www.w3.org/TR/2001/REC-SVG-20010904/DTD/svg10.dtd">
<svg version="1.0" xmlns="http://www.w3.org/2000/svg"
 width="900.000000pt" height="1332.000000pt" viewBox="0 0 900.000000 1332.000000"
 preserveAspectRatio="xMidYMid meet">
<g transform="translate(0.000000,1332.000000) scale(0.100000,-0.100000)"
stroke-width="42">
<path d="M6140 11165 c-7 -8 -18 -15 -25 -15 -6 0 -22 -9 -35 -20 -13 -11 -27
-20 -33 -20 -5 0 -29 -17 -53 -37 -91 -79 -122 -103 -130 -103 -5 0 -31 -20
-59 -45 -27 -25 -55 -45 -61 -45 -5 0 -23 -13 -38 -29 -16 -16 -39 -32 -52
-35 -13 -4 -24 -11 -24 -16 0 -5 -17 -18 -37 -29 -21 -10 -49 -31 -62 -45 -14
-14 -30 -26 -36 -26 -6 0 -22 -12 -36 -26 -13 -14 -39 -35 -59 -47 -19 -12
-46 -34 -60 -49 -13 -15 -32 -28 -40 -28 -9 0 -29 -13 -45 -30 -16 -16 -34
-30 -39 -30 -6 -1 -27 -14 -46 -30 -19 -17 -38 -30 -43 -30 -9 0 -39 -23 -131
-102 -24 -21 -48 -38 -54 -38 -6 0 -26 -16 -45 -35 -19 -19 -40 -35 -47 -35
-7 0 -30 -15 -51 -32 -78 -67 -107 -88 -117 -88 -6 0 -31 -17 -56 -37 -122
-101 -138 -113 -147 -113 -6 0 -22 -13 -36 -30 -13 -16 -32 -30 -40 -30 -8 0
-29 -13 -46 -30 -39 -35 -90 -73 -137 -99 -19 -10 -46 -31 -59 -45 -14 -14
-30 -26 -36 -26 -6 0 -26 -16 -45 -35 -19 -19 -40 -35 -48 -35 -7 0 -25 -13
-39 -30 -13 -16 -30 -30 -36 -30 -7 0 -35 -20 -62 -45 -28 -25 -55 -45 -61
-45 -6 0 -19 -9 -29 -20 -10 -11 -23 -20 -30 -20 -6 0 -26 -16 -45 -35 -19
-19 -40 -35 -47 -35 -7 0 -30 -16 -52 -35 -21 -19 -42 -35 -47 -35 -5 0 -29
-18 -53 -40 -25 -22 -48 -40 -52 -40 -4 0 -25 -16 -46 -35 -21 -19 -43 -35
-49 -35 -5 0 -25 -16 -44 -35 -19 -19 -39 -35 -45 -35 -7 0 -20 -9 -30 -20
-10 -11 -27 -22 -39 -26 -21 -7 -36 -18 -144 -109 -29 -25 -58 -45 -65 -45 -7
0 -24 -13 -37 -30 -14 -16 -30 -29 -37 -30 -6 0 -32 -17 -57 -37 -74 -62 -104
-83 -114 -83 -5 0 -29 -18 -53 -40 -24 -22 -49 -40 -55 -40 -5 0 -25 -16 -44
-35 -19 -19 -40 -35 -48 -35 -8 0 -30 -16 -49 -35 -19 -19 -39 -35 -46 -35 -6
0 -26 -14 -43 -31 -18 -17 -41 -36 -51 -43 -11 -6 -34 -20 -52 -31 -19 -11
-52 -37 -75 -57 -22 -21 -46 -38 -52 -38 -5 0 -23 -13 -39 -30 -16 -16 -35
-30 -43 -30 -8 0 -30 -16 -49 -35 -19 -19 -40 -35 -47 -35 -7 0 -23 -12 -37
-26 -23 -25 -62 -54 -133 -99 -17 -10 -42 -32 -56 -47 -13 -15 -32 -28 -40
-28 -9 0 -29 -13 -45 -30 -16 -16 -34 -30 -40 -30 -6 0 -26 -15 -45 -34 -19
-18 -48 -40 -65 -49 -16 -8 -41 -27 -54 -41 -14 -14 -30 -26 -36 -26 -6 0 -22
-11 -35 -25 -13 -14 -29 -25 -36 -25 -7 0 -28 -16 -47 -35 -19 -19 -41 -35
-49 -35 -8 0 -23 -10 -34 -21 -10 -12 -35 -32 -54 -44 -19 -12 -50 -36 -69
-54 -18 -17 -38 -31 -43 -31 -10 0 -34 -18 -131 -101 -23 -20 -52 -39 -64 -43
-11 -4 -24 -13 -27 -21 -3 -8 -14 -15 -23 -15 -10 0 -26 -9 -36 -20 -18 -22
-22 -40 -9 -40 5 0 18 -17 29 -38 12 -20 33 -48 47 -61 14 -14 26 -29 26 -34
0 -5 18 -29 40 -53 22 -24 40 -49 40 -55 0 -7 16 -27 35 -46 19 -19 35 -40 35
-47 0 -7 13 -25 30 -41 16 -16 30 -33 30 -38 0 -5 13 -26 30 -47 16 -21 30
-42 30 -47 0 -5 16 -24 35 -43 19 -19 35 -39 35 -45 0 -6 16 -26 35 -45 19
-19 35 -40 35 -47 0 -8 16 -30 35 -50 19 -20 35 -41 35 -48 0 -7 10 -20 21
-31 12 -10 33 -37 47 -59 14 -22 38 -53 54 -69 15 -17 28 -35 28 -41 0 -7 10
-20 21 -31 22 -19 62 -74 89 -123 9 -15 28 -40 43 -56 15 -17 27 -34 27 -38 0
-5 20 -32 45 -59 25 -28 45 -56 45 -62 0 -7 13 -23 30 -36 16 -14 29 -32 30
-41 0 -8 16 -30 35 -49 19 -19 35 -39 35 -45 0 -6 16 -26 35 -45 19 -19 35
-40 35 -46 0 -7 16 -30 35 -51 19 -21 35 -43 35 -49 0 -5 13 -23 30 -39 16
-16 30 -36 30 -45 0 -9 13 -27 30 -40 16 -14 29 -30 30 -37 0 -6 17 -32 38
-57 20 -25 54 -66 74 -92 21 -25 38 -51 38 -59 0 -7 13 -25 30 -38 16 -14 30
-30 30 -35 0 -6 20 -32 45 -60 25 -27 45 -56 45 -64 0 -8 13 -25 30 -38 16
-14 29 -31 30 -37 0 -7 15 -30 33 -50 34 -39 59 -74 90 -127 11 -17 27 -40 38
-52 10 -11 19 -25 19 -30 0 -6 13 -23 30 -39 17 -16 30 -37 30 -46 0 -10 6
-22 14 -26 11 -7 40 -46 81 -112 6 -9 20 -29 33 -44 12 -16 22 -35 22 -42 0
-8 6 -18 14 -22 7 -4 28 -29 45 -54 17 -25 37 -52 46 -59 8 -7 15 -20 15 -29
0 -9 8 -24 18 -32 9 -9 25 -29 34 -45 33 -55 43 -69 80 -111 21 -24 38 -50 38
-58 0 -9 7 -18 15 -21 8 -3 17 -16 21 -27 4 -12 20 -37 35 -55 16 -18 29 -38
29 -45 0 -7 13 -24 30 -37 16 -14 29 -30 30 -37 0 -6 10 -24 22 -40 24 -30 37
-49 66 -97 9 -16 27 -41 40 -56 12 -15 22 -32 22 -37 0 -5 14 -22 30 -38 17
-16 30 -34 30 -41 0 -6 13 -27 30 -45 16 -19 30 -39 30 -45 0 -6 9 -19 20 -29
11 -10 20 -22 20 -28 0 -5 11 -22 25 -39 14 -16 25 -36 25 -43 0 -7 13 -24 29
-38 16 -13 36 -37 44 -54 9 -16 23 -35 31 -42 9 -8 16 -22 16 -32 0 -10 6 -22
13 -26 8 -4 34 -39 59 -78 25 -38 56 -79 68 -90 12 -11 28 -33 36 -50 24 -51
40 -75 68 -104 14 -15 26 -34 26 -42 0 -8 9 -22 20 -32 11 -9 20 -23 20 -30 0
-8 12 -24 26 -38 29 -28 104 -134 104 -148 0 -6 6 -14 13 -18 8 -4 20 -19 28
-34 36 -66 56 -95 87 -126 17 -19 32 -40 32 -48 0 -7 5 -17 10 -20 11 -7 49
-61 83 -119 11 -17 27 -40 38 -52 10 -11 19 -25 19 -30 0 -6 14 -23 30 -39 17
-16 30 -36 30 -44 0 -9 14 -29 30 -45 17 -16 30 -35 30 -41 0 -7 9 -20 20 -30
11 -10 20 -23 20 -30 0 -7 9 -20 20 -30 11 -10 22 -27 26 -39 4 -11 21 -38 38
-58 71 -85 86 -107 86 -121 0 -9 6 -20 14 -24 7 -4 19 -19 26 -33 15 -28 38
-60 93 -126 20 -25 37 -51 37 -58 0 -7 11 -23 25 -36 24 -22 25 -22 62 -5 21
10 42 24 46 31 4 8 17 14 27 14 10 0 23 6 27 13 4 8 37 32 73 55 36 23 76 51
89 63 14 11 56 41 95 66 39 26 75 52 79 60 4 7 17 13 27 13 10 0 22 5 25 10 7
11 60 48 119 84 17 10 35 24 39 32 4 8 15 14 22 14 8 0 32 16 54 35 21 19 42
35 47 35 5 0 24 14 43 30 18 17 40 30 47 30 7 0 17 6 21 13 4 7 19 18 33 25
14 6 52 32 85 56 33 25 65 45 71 45 5 1 25 17 44 36 19 19 37 35 41 35 13 0
119 73 119 81 0 5 8 9 17 9 9 0 24 6 32 14 26 24 83 64 121 85 19 10 48 33 64
50 17 17 35 31 42 31 6 0 17 7 24 15 7 8 20 15 29 15 9 0 29 14 45 30 16 17
35 30 41 30 7 0 20 9 30 20 10 11 23 20 30 20 7 0 20 9 30 20 10 11 27 22 39
26 11 4 33 19 48 35 15 15 40 35 56 43 16 8 34 22 41 30 8 9 22 16 32 16 10 0
22 6 26 13 7 13 123 94 181 127 15 8 38 27 51 43 14 15 33 27 41 27 9 0 29 13
45 30 16 16 36 30 45 30 8 0 23 9 33 20 9 11 23 20 30 20 8 0 24 11 37 25 13
14 29 25 35 25 6 0 22 11 35 25 13 14 29 25 36 25 7 0 28 16 47 35 19 19 40
35 48 35 8 1 30 14 49 30 19 17 40 30 47 30 7 0 13 4 13 10 0 5 15 18 34 27
49 25 180 115 189 130 4 7 15 13 24 13 8 0 33 15 54 32 77 65 104 85 126 92
54 17 85 115 48 146 -9 7 -14 19 -11 25 2 7 -1 23 -8 36 -6 13 -18 50 -26 82
-7 32 -17 60 -22 63 -4 3 -8 15 -8 28 0 12 -7 31 -15 42 -8 10 -15 34 -15 52
0 18 -7 46 -15 62 -9 17 -13 30 -9 30 3 0 0 10 -8 23 -8 12 -20 49 -28 82 -7
33 -17 64 -22 69 -4 6 -8 20 -8 32 0 12 -7 27 -15 34 -8 7 -15 26 -15 43 0 27
-11 67 -40 142 -21 57 -50 155 -50 173 0 11 -7 25 -15 32 -8 7 -15 29 -15 49
0 20 -4 41 -8 47 -4 5 -16 36 -26 69 -10 33 -22 68 -27 77 -5 10 -9 27 -9 37
0 11 -4 23 -10 26 -5 3 -10 19 -10 34 0 16 -7 34 -15 41 -9 8 -15 30 -15 56 0
24 -4 44 -10 44 -5 0 -10 8 -10 18 0 9 -12 49 -25 87 -14 39 -25 78 -25 88 0
9 -4 17 -10 17 -5 0 -10 12 -10 28 0 15 -7 36 -15 46 -8 11 -15 37 -15 57 0
21 -4 41 -10 44 -5 3 -10 15 -10 26 0 10 -4 27 -9 37 -5 9 -17 44 -27 77 -10
33 -22 64 -26 70 -4 5 -8 21 -8 36 0 15 -7 32 -15 39 -8 7 -15 27 -15 44 0 17
-9 56 -21 86 -11 30 -22 62 -23 70 -1 8 -5 22 -8 30 -24 62 -38 108 -38 122 0
8 -7 21 -15 28 -8 7 -15 29 -15 49 0 20 -4 41 -8 46 -5 6 -15 37 -22 70 -8 33
-20 70 -28 83 -8 12 -11 22 -8 22 4 0 0 13 -9 30 -8 16 -15 40 -15 53 0 14 -7
30 -15 37 -8 7 -15 28 -15 46 0 19 -4 42 -9 52 -15 27 -54 155 -53 174 0 9 -6
22 -14 29 -8 6 -14 23 -14 38 0 14 -7 35 -15 45 -8 11 -15 33 -15 48 0 16 -4
36 -9 46 -9 17 -44 132 -55 185 -4 15 -11 27 -16 27 -6 0 -10 18 -10 41 0 23
-7 47 -15 55 -8 9 -15 28 -15 44 0 16 -4 32 -10 35 -5 3 -10 15 -10 26 0 10
-4 27 -9 37 -5 9 -17 44 -26 77 -10 33 -21 64 -26 70 -5 5 -9 26 -9 46 0 20
-7 42 -15 49 -8 7 -15 23 -15 36 0 14 -4 32 -9 42 -5 9 -14 37 -21 62 -7 25
-16 53 -21 62 -5 10 -9 33 -9 52 0 18 -7 39 -15 46 -8 7 -15 27 -15 45 0 18
-7 38 -15 45 -8 7 -15 23 -15 36 0 12 -4 25 -8 28 -5 3 -14 35 -22 71 -8 36
-17 68 -22 71 -4 3 -8 22 -8 43 0 22 -6 44 -15 51 -8 7 -15 22 -15 34 -1 11
-7 32 -15 46 -8 14 -14 36 -15 50 0 14 -9 50 -20 80 -11 30 -20 63 -20 73 0
23 -30 119 -41 131 -5 6 -9 22 -9 37 0 15 -7 29 -15 33 -10 3 -15 19 -15 46 0
22 -4 48 -9 58 -16 33 -31 89 -31 120 0 17 -4 34 -10 37 -5 3 -10 17 -10 29 0
13 -6 29 -14 35 -8 7 -16 31 -19 54 -2 23 -10 58 -17 77 -39 106 -50 143 -50
173 0 14 -4 29 -10 32 -5 3 -10 19 -10 34 0 16 -7 34 -15 41 -9 8 -15 29 -15
55 0 27 -5 45 -14 48 -7 3 -16 20 -19 39 -3 18 -11 56 -17 83 -6 28 -13 62
-17 78 -3 15 -9 30 -14 33 -5 3 -9 15 -9 28 0 12 -7 31 -15 42 -8 10 -15 35
-15 55 0 19 -7 44 -15 55 -8 10 -15 29 -15 41 0 12 -4 25 -10 28 -5 3 -10 21
-10 38 0 18 -9 57 -20 87 -11 30 -20 69 -20 86 0 17 -7 37 -15 44 -8 7 -15 24
-15 39 0 15 -4 31 -9 37 -11 12 -41 107 -41 131 0 21 -23 89 -33 99 -4 4 -7
24 -7 44 0 20 -7 45 -15 56 -8 10 -15 31 -15 45 0 15 -7 32 -16 40 -10 8 -14
22 -11 38 3 14 0 35 -6 46 -16 28 -48 142 -54 190 -6 49 -16 61 -33 40z"/>
</g>
</svg>
