<?xml version="1.0" standalone="no"?>
<!DOCTYPE svg PUBLIC "-//W3C//DTD SVG 20010904//EN"
 "http://www.w3.org/TR/2001/REC-SVG-20010904/DTD/svg10.dtd">
<svg version="1.0" xmlns="http://www.w3.org/2000/svg"
 width="900.000000pt" height="924.000000pt" viewBox="0 0 900.000000 924.000000"
 preserveAspectRatio="xMidYMid meet">
<g transform="translate(0.000000,924.000000) scale(0.100000,-0.100000)"
stroke-width="42">
<path d="M3945 8845 c-33 -24 -76 -56 -95 -70 -19 -14 -44 -32 -55 -40 -23
-17 -225 -163 -270 -195 -36 -25 -290 -211 -324 -237 -13 -10 -34 -25 -46 -33
-12 -8 -33 -23 -46 -33 -13 -10 -73 -54 -134 -97 -60 -44 -135 -98 -165 -120
-30 -23 -104 -77 -165 -121 -60 -43 -119 -86 -130 -94 -11 -8 -36 -26 -55 -40
-19 -14 -83 -62 -142 -105 -59 -44 -112 -80 -117 -80 -6 0 -14 -6 -18 -13 -4
-8 -39 -35 -78 -62 -38 -26 -105 -75 -147 -107 -42 -32 -81 -58 -87 -58 -5 0
-14 -6 -18 -13 -4 -7 -23 -23 -40 -36 -18 -12 -33 -29 -33 -37 0 -17 67 -115
87 -127 7 -4 13 -13 13 -18 0 -9 56 -87 71 -99 4 -3 17 -21 30 -40 36 -52 142
-193 155 -205 6 -5 19 -23 29 -40 10 -16 38 -54 61 -85 24 -30 57 -73 74 -95
17 -22 54 -69 82 -105 27 -36 55 -74 60 -85 6 -11 17 -27 25 -35 7 -8 27 -33
43 -55 16 -22 36 -47 44 -55 7 -8 25 -32 38 -52 14 -20 48 -66 77 -101 28 -36
51 -70 51 -75 0 -6 6 -15 13 -19 12 -8 107 -132 156 -203 13 -19 26 -37 30
-40 15 -12 71 -90 71 -99 0 -5 6 -14 13 -18 7 -4 48 -55 91 -113 42 -58 86
-116 96 -130 11 -14 46 -61 80 -105 33 -44 83 -111 112 -148 29 -38 55 -74 58
-80 3 -7 15 -23 27 -37 12 -14 175 -230 362 -480 187 -250 344 -459 349 -465
4 -5 123 -164 264 -352 141 -187 261 -344 266 -347 5 -3 17 3 27 14 10 11 24
20 32 20 7 0 16 7 19 15 4 8 12 15 19 15 7 0 15 7 19 15 3 8 11 15 17 15 6 0
28 14 48 30 48 41 49 41 111 85 30 21 71 50 90 65 74 57 70 59 141 -38 35 -47
72 -94 81 -103 17 -18 68 -85 332 -439 76 -102 144 -189 151 -195 6 -5 20 -22
29 -38 10 -15 23 -27 30 -27 6 0 40 23 75 50 36 28 67 50 70 50 3 0 20 13 38
28 18 15 49 38 69 52 20 14 45 33 55 43 10 9 23 17 28 17 5 0 11 7 15 15 3 8
10 15 16 15 11 0 85 54 105 76 5 7 262 200 570 431 308 231 566 427 574 436 7
10 18 17 23 17 12 0 68 52 68 63 0 8 -48 78 -134 194 -34 44 -70 94 -81 109
-11 15 -30 40 -42 55 -13 15 -23 32 -23 37 0 6 -6 15 -14 19 -7 4 -35 40 -61
78 -26 39 -59 84 -72 100 -14 17 -63 82 -110 145 -77 104 -105 143 -154 217
-9 13 -28 38 -43 56 -14 17 -82 109 -150 202 -69 94 -142 193 -164 220 -21 28
-47 64 -58 80 -10 17 -43 64 -74 105 -31 41 -86 116 -123 165 -37 50 -71 95
-77 102 -5 7 -10 16 -10 22 0 5 -7 11 -15 15 -8 3 -15 10 -15 17 0 6 -10 23
-22 38 -13 15 -32 40 -43 55 -11 15 -82 111 -157 212 -76 101 -138 188 -138
193 0 6 -6 14 -13 18 -7 4 -30 33 -50 63 -20 30 -52 73 -71 95 -20 22 -36 43
-36 46 0 3 -38 57 -85 120 -46 63 -101 138 -122 167 -21 28 -58 79 -83 111
-112 147 -200 271 -200 280 0 6 -6 14 -13 18 -15 9 -107 128 -107 138 0 4 -12
21 -26 39 -14 17 -97 128 -184 246 -88 118 -177 240 -200 270 -22 30 -80 109
-128 175 -48 66 -110 151 -137 188 -28 38 -77 105 -110 150 -33 45 -63 87 -67
92 -51 64 -108 146 -108 155 0 21 -37 8 -95 -35z"/>
<path d="M1450 6966 c-8 -8 -46 -35 -85 -62 -38 -26 -117 -79 -175 -119 -227
-155 -276 -188 -292 -202 -9 -8 -46 -34 -81 -57 -88 -56 -168 -111 -259 -176
-42 -30 -99 -71 -128 -90 -102 -70 -101 -69 -87 -94 6 -13 73 -105 147 -206
74 -100 194 -262 265 -360 72 -98 184 -251 250 -341 66 -89 122 -167 124 -173
2 -6 14 -21 26 -34 12 -12 43 -53 69 -90 26 -37 66 -93 89 -124 23 -32 85
-116 137 -188 52 -71 150 -204 218 -295 67 -91 122 -170 122 -175 0 -5 6 -13
14 -17 7 -4 35 -39 61 -78 26 -38 59 -83 72 -100 14 -16 60 -79 104 -140 116
-162 162 -224 182 -246 9 -10 17 -21 17 -24 0 -5 83 -118 144 -198 8 -10 38
-52 68 -93 29 -40 102 -140 163 -221 60 -81 123 -169 140 -194 16 -25 47 -67
68 -95 100 -130 197 -264 197 -273 0 -6 6 -14 13 -18 6 -4 27 -28 45 -53 159
-221 194 -268 212 -290 11 -14 37 -50 57 -80 20 -30 40 -57 44 -60 3 -3 17
-21 30 -40 29 -42 86 -120 186 -252 40 -54 73 -102 73 -107 0 -6 6 -14 14 -18
7 -4 25 -27 39 -49 14 -23 45 -66 69 -95 24 -30 56 -73 72 -97 23 -34 33 -41
50 -36 24 8 257 182 269 201 4 7 13 13 19 13 5 0 42 25 82 55 39 31 113 88
165 128 52 40 134 102 182 139 49 38 93 68 98 68 6 0 14 6 18 13 4 7 64 55
133 107 69 51 129 97 133 100 9 8 -30 80 -44 80 -5 0 -9 5 -9 10 0 6 -58 88
-129 183 -71 94 -148 200 -172 234 -24 35 -91 126 -149 203 -58 78 -114 154
-125 170 -11 15 -34 48 -51 73 -18 25 -39 53 -48 63 -9 11 -72 96 -140 189
-68 94 -136 184 -150 201 -14 18 -26 35 -26 39 0 10 -92 129 -107 138 -7 4
-13 12 -13 18 0 5 -33 54 -73 107 -40 53 -88 119 -107 146 -18 27 -39 56 -47
65 -8 9 -48 63 -89 120 -42 57 -80 108 -85 115 -18 21 -142 191 -187 256 -25
36 -51 69 -59 73 -7 4 -13 12 -13 18 0 5 -53 80 -118 167 -64 86 -125 169
-134 183 -9 14 -23 32 -30 40 -8 8 -31 39 -51 69 -20 30 -46 66 -57 80 -18 22
-53 69 -212 290 -18 25 -39 49 -45 53 -7 4 -13 12 -13 17 0 9 -249 352 -284
392 -9 10 -26 34 -40 55 -13 21 -63 90 -110 153 -47 63 -94 126 -104 139 -9
13 -29 40 -44 59 -16 19 -28 38 -28 41 0 4 -9 17 -20 29 -11 12 -30 36 -43 54
-27 41 -88 122 -184 250 -40 54 -73 102 -73 107 0 6 -6 14 -13 18 -8 4 -22 22
-32 38 -27 43 -85 115 -94 115 -3 0 -13 -6 -21 -14z"/>
<path d="M7953 3792 c-17 -9 -44 -26 -60 -37 -32 -22 -217 -157 -248 -180 -11
-8 -36 -26 -55 -40 -19 -14 -83 -62 -142 -105 -59 -44 -112 -80 -117 -80 -6 0
-14 -6 -18 -13 -4 -7 -33 -30 -63 -52 -30 -21 -96 -69 -147 -107 -51 -37 -97
-68 -102 -68 -6 0 -14 -6 -18 -13 -8 -13 -159 -126 -262 -197 -29 -19 -57 -40
-64 -46 -7 -6 -60 -46 -117 -88 -58 -41 -177 -129 -264 -193 -88 -65 -164
-120 -170 -122 -6 -2 -15 -9 -21 -15 -5 -7 -41 -34 -80 -61 -38 -26 -105 -75
-147 -107 -42 -32 -81 -58 -87 -58 -5 0 -14 -6 -18 -14 -4 -7 -43 -38 -85 -67
-71 -49 -262 -188 -398 -289 -102 -76 -266 -195 -282 -205 -8 -5 -35 -25 -59
-43 -168 -127 -378 -279 -392 -285 -9 -3 -17 -11 -17 -17 0 -5 -5 -10 -10 -10
-6 0 -16 -5 -23 -10 -7 -6 -52 -40 -102 -77 -49 -37 -124 -92 -165 -123 -41
-30 -93 -67 -115 -81 -22 -15 -59 -41 -82 -60 -24 -19 -84 -63 -134 -99 -229
-164 -243 -177 -224 -203 6 -8 24 -33 40 -55 139 -194 198 -267 215 -267 10 0
53 25 95 55 187 134 372 269 519 378 88 64 164 119 170 121 6 2 18 11 27 20 9
9 42 34 73 56 31 22 95 68 141 103 46 34 89 62 94 62 6 0 14 6 18 13 4 7 37
34 73 60 63 45 85 61 182 132 26 19 50 35 55 35 4 0 18 11 31 24 12 14 48 41
80 62 31 21 63 44 71 52 8 7 26 21 40 30 14 9 73 52 131 94 58 43 129 94 158
115 29 21 70 52 92 68 21 17 71 53 110 80 39 28 77 55 83 60 29 24 92 70 103
75 6 3 24 15 40 28 103 80 285 212 292 212 5 0 22 13 38 30 16 16 33 30 37 30
4 0 61 40 125 88 64 48 131 96 147 106 17 11 34 25 38 33 4 7 12 13 17 13 6 0
65 41 132 91 68 51 141 105 163 121 22 15 103 74 180 131 77 56 151 110 165
120 65 46 443 322 503 367 62 47 67 54 67 88 0 37 -6 47 -121 218 -19 28 -50
69 -70 92 l-35 41 -31 -17z"/>
</g>
</svg>
