<?xml version="1.0" standalone="no"?>
<!DOCTYPE svg PUBLIC "-//W3C//DTD SVG 20010904//EN"
 "http://www.w3.org/TR/2001/REC-SVG-20010904/DTD/svg10.dtd">
<svg version="1.0" xmlns="http://www.w3.org/2000/svg"
 width="900.000000pt" height="924.000000pt" viewBox="0 0 900.000000 924.000000"
 preserveAspectRatio="xMidYMid meet">
<metadata>
Created by potrace 1.10, written by Peter Selinger 2001-2011
</metadata>
<g transform="translate(0.000000,924.000000) scale(0.100000,-0.100000)"
stroke-width="42">
<path d="M4940 8880 c0 -9 -57 -91 -108 -155 -4 -5 -34 -47 -67 -92 -33 -45
-82 -112 -110 -150 -27 -37 -89 -122 -137 -188 -48 -66 -106 -145 -128 -175
-23 -30 -112 -152 -200 -270 -87 -118 -170 -229 -184 -246 -14 -18 -26 -35
-26 -39 0 -10 -92 -129 -107 -138 -7 -4 -13 -12 -13 -18 0 -9 -88 -133 -200
-280 -25 -32 -62 -83 -83 -111 -21 -29 -76 -104 -122 -167 -47 -63 -85 -117
-85 -120 0 -3 -16 -24 -36 -46 -19 -22 -51 -65 -71 -95 -20 -30 -43 -59 -50
-63 -7 -4 -13 -12 -13 -17 0 -5 -61 -91 -135 -190 -74 -99 -135 -184 -135
-189 0 -6 -6 -14 -12 -18 -17 -11 -73 -84 -81 -105 -3 -10 -11 -18 -17 -18 -5
0 -10 -5 -10 -10 0 -6 -5 -16 -10 -23 -6 -7 -40 -52 -77 -102 -37 -49 -92
-124 -123 -165 -31 -41 -64 -88 -74 -105 -11 -16 -37 -52 -58 -80 -22 -27 -95
-126 -164 -220 -68 -93 -136 -185 -150 -202 -15 -18 -34 -43 -43 -56 -49 -74
-77 -113 -154 -217 -47 -63 -96 -128 -110 -145 -13 -16 -46 -61 -72 -100 -26
-38 -54 -74 -61 -78 -8 -4 -14 -13 -14 -19 0 -5 -10 -22 -23 -37 -12 -15 -31
-40 -42 -55 -11 -15 -47 -65 -81 -109 -86 -116 -134 -186 -134 -194 0 -11 56
-63 68 -63 5 0 16 -7 23 -17 8 -9 266 -205 574 -436 308 -231 565 -424 570
-431 20 -22 94 -76 105 -76 6 0 13 -7 16 -15 4 -8 10 -15 15 -15 5 0 18 -8 28
-17 10 -10 35 -29 55 -43 20 -14 50 -37 68 -52 17 -16 34 -28 38 -28 4 0 35
-22 71 -50 35 -27 69 -50 75 -50 7 0 20 12 30 28 9 15 23 32 29 37 7 6 75 93
151 195 267 358 315 421 332 438 10 10 46 57 81 105 70 96 66 95 141 37 19
-15 60 -44 90 -65 62 -44 63 -44 111 -85 20 -16 42 -30 48 -30 6 0 14 -7 17
-15 4 -8 12 -15 19 -15 7 0 15 -7 19 -15 3 -8 12 -15 19 -15 8 0 22 -9 32 -20
10 -11 22 -17 27 -14 5 3 125 160 266 347 141 188 260 347 264 352 5 6 162
215 349 465 187 250 350 466 362 480 12 14 24 30 27 37 3 6 29 42 58 80 53 69
159 209 190 251 103 141 179 238 189 245 7 4 13 13 13 18 0 9 56 87 71 99 4 3
17 21 30 40 49 71 144 195 156 203 7 4 13 13 13 19 0 5 23 39 51 75 29 35 63
81 77 101 13 20 31 44 38 52 8 8 28 33 44 55 16 22 36 47 43 55 8 8 19 24 25
35 5 11 33 49 60 85 28 36 65 83 82 105 17 22 50 65 74 95 23 31 51 69 61 85
10 17 23 35 29 40 13 12 119 153 155 205 13 19 26 37 30 40 15 12 71 90 71 99
0 5 6 14 13 18 20 12 87 110 87 127 0 8 -15 25 -32 37 -18 13 -37 29 -41 36
-4 7 -13 13 -18 13 -6 0 -45 26 -87 58 -42 32 -108 81 -147 107 -38 27 -74 54
-78 62 -4 7 -12 13 -18 13 -5 0 -58 36 -117 80 -59 43 -123 91 -142 105 -19
14 -44 32 -55 40 -11 8 -69 51 -130 94 -60 44 -135 98 -165 121 -30 22 -104
76 -165 120 -60 43 -121 87 -134 97 -13 10 -34 25 -46 33 -12 8 -33 23 -46 33
-34 26 -288 212 -324 237 -42 30 -246 177 -270 195 -161 120 -212 155 -229
155 -9 0 -16 -5 -16 -10z"/>
<path d="M7468 6938 c-19 -24 -43 -56 -53 -73 -10 -16 -24 -34 -32 -38 -7 -4
-13 -12 -13 -18 0 -5 -33 -53 -73 -107 -96 -128 -157 -209 -184 -250 -13 -18
-32 -42 -43 -54 -11 -12 -20 -25 -20 -29 0 -3 -12 -22 -27 -41 -16 -19 -36
-46 -45 -59 -10 -13 -57 -76 -104 -139 -47 -63 -97 -132 -110 -153 -14 -21
-31 -45 -40 -55 -35 -40 -284 -383 -284 -392 0 -5 -6 -13 -13 -17 -6 -4 -27
-28 -45 -53 -159 -221 -194 -268 -212 -290 -11 -14 -37 -50 -57 -80 -20 -30
-43 -61 -51 -69 -7 -8 -21 -26 -30 -40 -9 -14 -70 -97 -134 -183 -65 -87 -118
-162 -118 -167 0 -6 -6 -14 -12 -18 -14 -9 -78 -89 -78 -97 0 -5 -142 -200
-169 -232 -5 -7 -44 -58 -85 -115 -41 -57 -89 -122 -105 -144 -136 -181 -211
-287 -211 -295 0 -5 -6 -13 -13 -17 -15 -9 -107 -128 -107 -138 0 -4 -12 -21
-26 -39 -14 -17 -82 -107 -150 -201 -68 -93 -131 -178 -140 -189 -9 -10 -30
-38 -48 -63 -17 -25 -40 -58 -51 -73 -11 -16 -67 -92 -125 -170 -58 -77 -125
-168 -149 -203 -24 -34 -101 -140 -172 -234 -71 -95 -129 -177 -129 -183 0 -5
-4 -10 -9 -10 -14 0 -53 -72 -44 -80 4 -3 64 -49 133 -100 69 -52 129 -100
133 -107 4 -7 12 -13 18 -13 5 0 49 -30 98 -67 48 -38 130 -100 182 -140 52
-40 126 -97 165 -128 40 -30 77 -55 82 -55 6 0 15 -6 19 -13 12 -19 245 -193
269 -201 17 -5 27 2 50 36 16 24 48 67 72 97 24 29 55 72 69 95 14 22 32 45
39 49 8 4 14 12 14 18 0 5 33 53 73 107 97 129 157 210 185 251 13 18 30 40
38 48 8 8 19 24 25 35 6 11 64 93 130 182 65 88 133 181 151 206 18 25 39 49
45 53 7 4 13 12 13 18 0 9 97 143 197 273 21 28 52 70 68 95 17 25 80 113 140
194 61 81 134 181 163 221 30 41 60 83 68 93 61 80 144 193 144 198 0 3 8 14
18 24 19 22 65 84 181 246 44 61 90 124 104 140 13 17 46 62 72 100 26 39 54
74 61 78 8 4 14 12 14 17 0 5 55 84 123 175 67 91 165 224 217 295 52 72 114
156 137 188 23 31 63 87 89 124 26 37 57 78 69 90 12 13 24 28 26 34 2 6 58
84 124 173 66 90 179 243 250 341 72 98 191 260 265 360 74 101 141 193 147
206 14 25 15 24 -87 94 -29 19 -86 60 -128 90 -91 65 -171 120 -259 176 -35
23 -72 49 -81 57 -16 14 -65 47 -292 202 -216 147 -245 168 -261 181 -22 20
-24 19 -61 -28z"/>
<path d="M960 3767 c-19 -23 -50 -64 -69 -91 -114 -169 -121 -181 -121 -218 0
-34 5 -41 68 -88 59 -45 437 -321 502 -367 14 -10 88 -64 165 -120 77 -57 158
-116 180 -131 22 -16 95 -70 163 -121 67 -50 126 -91 132 -91 5 0 13 -6 17
-13 4 -8 22 -22 38 -33 17 -10 83 -58 147 -106 64 -48 122 -88 127 -88 6 0 14
-6 18 -14 4 -7 26 -25 48 -39 35 -22 220 -158 299 -219 16 -13 34 -25 40 -28
11 -5 74 -51 103 -75 6 -5 44 -32 83 -60 39 -27 89 -63 110 -80 22 -16 63 -47
92 -68 29 -21 100 -72 158 -115 58 -42 116 -84 130 -93 14 -9 41 -31 60 -48
19 -17 39 -31 44 -31 7 0 29 -16 101 -73 6 -4 35 -25 65 -47 30 -21 71 -50 90
-65 19 -14 64 -47 100 -72 36 -26 69 -53 73 -60 4 -7 12 -13 18 -13 5 0 48
-28 94 -62 46 -35 110 -81 141 -103 31 -22 64 -47 73 -56 9 -9 21 -18 27 -20
6 -2 82 -57 170 -121 147 -109 332 -244 519 -378 42 -30 85 -55 95 -55 17 0
76 73 215 267 17 22 34 47 40 55 19 26 5 39 -224 203 -50 36 -110 80 -134 99
-23 19 -60 45 -82 60 -22 14 -74 51 -115 81 -41 31 -115 86 -165 123 -49 37
-95 71 -102 77 -7 5 -16 10 -22 10 -5 0 -11 7 -15 15 -3 8 -10 15 -15 15 -8 0
-206 143 -390 282 -24 18 -51 38 -59 43 -16 10 -180 129 -282 205 -136 101
-327 240 -398 289 -42 29 -81 60 -85 67 -4 8 -13 14 -18 14 -6 0 -45 26 -87
58 -42 32 -108 81 -147 107 -38 27 -74 54 -80 61 -5 6 -15 13 -21 15 -6 2 -82
57 -170 122 -87 64 -206 152 -264 193 -57 42 -110 82 -117 88 -7 6 -35 27 -64
46 -103 71 -254 184 -262 197 -4 7 -12 13 -18 13 -6 0 -47 28 -92 62 -45 34
-111 82 -147 106 -36 25 -69 51 -73 59 -4 7 -12 13 -18 13 -5 0 -58 36 -117
80 -59 43 -123 91 -142 105 -19 14 -44 32 -55 40 -11 8 -69 51 -130 94 -60 44
-122 89 -136 100 -56 43 -71 43 -109 -2z"/>
</g>
</svg>
