<?xml version="1.0" standalone="no"?>
<!DOCTYPE svg PUBLIC "-//W3C//DTD SVG 20010904//EN"
 "http://www.w3.org/TR/2001/REC-SVG-20010904/DTD/svg10.dtd">
<svg version="1.0" xmlns="http://www.w3.org/2000/svg"
 width="900.000000pt" height="774.000000pt" viewBox="0 0 900.000000 774.000000"
 preserveAspectRatio="xMidYMid meet">
<g transform="translate(0.000000,774.000000) scale(0.100000,-0.100000)" stroke-width="42">
<path d="M2589 7380 c-62 -80 -126 -164 -187 -247 -23 -32 -85 -115 -136 -185
-52 -71 -99 -143 -104 -160 -6 -18 -18 -60 -27 -93 -9 -33 -23 -73 -31 -88 -8
-16 -14 -39 -14 -52 0 -14 -6 -39 -14 -57 -13 -30 -21 -56 -63 -203 -8 -27
-19 -63 -25 -80 -6 -16 -13 -43 -16 -60 -2 -16 -11 -39 -18 -50 -8 -11 -14
-28 -14 -38 0 -10 -11 -51 -25 -90 -13 -40 -28 -90 -34 -112 -5 -22 -14 -53
-20 -70 -5 -16 -24 -77 -41 -135 -17 -58 -36 -118 -41 -135 -19 -55 -41 -130
-46 -160 -3 -16 -12 -39 -19 -50 -8 -11 -14 -29 -14 -41 0 -11 -14 -58 -30
-104 -17 -46 -30 -93 -30 -104 0 -12 -7 -34 -15 -50 -8 -15 -15 -34 -15 -41 0
-6 -13 -52 -30 -101 -16 -49 -30 -97 -30 -106 0 -9 -5 -29 -12 -45 -29 -72
-47 -130 -48 -154 0 -14 -7 -34 -15 -45 -8 -10 -15 -28 -15 -40 0 -11 -14 -60
-30 -109 -17 -49 -30 -97 -30 -108 0 -10 -6 -31 -14 -45 -7 -15 -21 -54 -30
-87 -10 -33 -22 -73 -28 -90 -5 -16 -13 -46 -18 -65 -7 -35 -51 -178 -71 -235
-6 -16 -15 -43 -19 -60 -5 -16 -15 -52 -24 -80 -8 -27 -20 -70 -27 -95 -6 -25
-17 -61 -24 -80 -7 -19 -18 -51 -25 -70 -6 -19 -16 -51 -20 -70 -4 -19 -13
-48 -19 -65 -10 -28 -71 -227 -93 -305 -6 -19 -17 -50 -24 -68 -8 -18 -14 -39
-14 -48 0 -12 -35 -129 -72 -239 -5 -16 -13 -46 -17 -65 -4 -19 -13 -45 -19
-57 -7 -12 -12 -32 -12 -45 0 -13 -7 -32 -15 -42 -8 -11 -15 -29 -15 -41 0
-12 -14 -61 -30 -110 -17 -49 -30 -98 -30 -109 0 -12 -7 -30 -15 -40 -8 -11
-15 -32 -15 -47 0 -15 -4 -30 -9 -33 -5 -4 -12 -24 -16 -47 -4 -22 -13 -53
-21 -67 -8 -15 -14 -36 -14 -47 0 -12 -13 -59 -30 -105 -16 -47 -30 -92 -30
-101 0 -9 -7 -30 -15 -45 -8 -16 -15 -37 -15 -46 0 -9 -4 -27 -9 -40 -5 -13
-22 -63 -36 -113 -15 -49 -31 -98 -36 -107 -5 -10 -9 -28 -9 -41 0 -12 -6 -31
-14 -42 -7 -11 -16 -36 -18 -55 -3 -19 -11 -51 -18 -70 -30 -81 -38 -107 -49
-150 -6 -25 -18 -67 -27 -95 -8 -27 -19 -63 -24 -80 -4 -16 -13 -43 -18 -60
-6 -16 -25 -77 -42 -135 -17 -58 -36 -118 -42 -135 -6 -16 -12 -48 -12 -70
l-1 -40 1218 -2 c797 -2 1224 -6 1237 -13 12 -7 561 -10 1626 -10 l1607 0 326
328 c304 307 466 472 1317 1342 180 184 467 478 638 652 410 419 468 482 460
501 -3 9 -31 33 -62 53 -32 21 -61 44 -65 51 -4 7 -12 13 -18 13 -5 0 -55 34
-109 75 -54 41 -102 75 -105 75 -9 0 -89 63 -94 73 -2 5 -13 12 -25 18 -11 5
-48 29 -81 54 -33 24 -85 62 -115 83 -109 75 -125 87 -150 108 -14 12 -48 37
-76 56 -27 18 -72 50 -100 71 -27 21 -98 74 -159 117 -60 44 -135 98 -165 120
-30 23 -80 59 -110 80 -30 22 -60 44 -67 50 -7 5 -16 10 -21 10 -5 0 -15 7
-23 16 -12 15 -100 78 -141 101 -11 6 -23 15 -27 20 -8 11 -89 73 -95 73 -5 0
-151 107 -286 209 -19 15 -48 35 -65 45 -16 11 -34 25 -38 33 -4 7 -12 13 -18
13 -5 0 -55 34 -109 75 -54 41 -102 75 -105 75 -9 0 -89 63 -98 78 -4 6 -12
12 -18 12 -5 0 -55 34 -109 75 -54 41 -102 75 -106 75 -3 0 -28 18 -55 41 -27
22 -79 61 -117 87 -38 26 -90 63 -117 82 -26 19 -103 74 -169 122 -67 48 -146
106 -176 128 -30 23 -103 77 -162 120 -59 44 -111 80 -115 80 -5 0 -16 8 -25
18 -9 9 -31 27 -50 40 -18 13 -56 40 -85 60 -28 20 -61 44 -73 52 -34 23 -93
67 -111 83 -8 7 -22 17 -30 21 -32 16 -56 32 -79 53 -13 13 -42 35 -64 50 -23
16 -42 31 -44 36 -2 4 -8 7 -13 7 -5 0 -18 8 -28 18 -10 9 -34 27 -52 40 -74
50 -255 183 -270 197 -9 8 -19 15 -24 15 -7 0 -58 40 -96 75 -9 8 -19 15 -23
15 -3 0 -64 43 -134 94 -70 52 -143 107 -162 121 -19 14 -60 44 -90 68 -30 23
-85 62 -121 87 -62 43 -124 87 -249 181 -224 167 -391 289 -397 289 -3 0 -13
7 -22 15 -9 8 -30 26 -47 40 l-32 25 -53 -70z"/>
</g>
</svg>
