<?xml version="1.0" standalone="no"?>
<!DOCTYPE svg PUBLIC "-//W3C//DTD SVG 20010904//EN"
 "http://www.w3.org/TR/2001/REC-SVG-20010904/DTD/svg10.dtd">
<svg version="1.0" xmlns="http://www.w3.org/2000/svg"
 width="900.000000pt" height="1470.000000pt" viewBox="0 0 900.000000 1470.000000"
 preserveAspectRatio="xMidYMid meet">
<g transform="translate(0.000000,1470.000000) scale(0.100000,-0.100000)" stroke-width="42">
<path d="M323 13252 c-11 -11 -13 -1086 -11 -6230 l3 -6217 2192 -3 2192 -2
16 29 c8 17 15 41 15 54 0 14 7 30 15 37 8 7 15 24 15 39 0 14 7 35 15 45 8
11 15 30 15 42 0 13 4 26 10 29 6 3 10 18 10 32 0 25 43 171 61 205 5 10 9 28
9 42 0 13 7 29 15 36 9 8 15 29 15 55 0 29 5 45 15 49 8 3 15 15 15 27 0 23 4
37 40 145 11 33 20 71 20 85 1 13 7 35 15 49 8 14 14 37 15 51 0 15 7 29 15
33 8 3 15 15 15 27 0 26 17 83 36 120 7 14 11 34 8 45 -3 11 2 33 10 49 9 17
16 40 16 52 0 12 4 25 10 28 5 3 10 17 10 29 0 13 7 29 15 36 8 7 15 27 15 45
0 18 7 38 15 45 8 7 15 28 15 46 0 19 4 42 9 52 14 29 31 87 31 110 0 11 5 24
10 27 6 3 10 17 10 29 0 13 7 29 15 36 9 7 15 29 15 55 0 26 6 48 15 55 8 7
15 24 15 39 0 15 4 31 8 37 4 5 16 36 26 69 10 33 22 68 27 77 5 10 9 33 9 52
0 19 4 38 10 41 6 3 10 16 10 29 0 12 7 31 15 42 8 10 15 31 15 45 0 15 7 32
15 39 8 7 15 25 15 41 0 15 5 31 10 34 6 3 10 22 10 41 0 19 4 42 9 52 5 9 17
44 26 77 10 33 21 64 26 69 5 6 9 22 9 37 0 15 6 32 14 38 8 7 16 31 19 54 8
61 18 100 32 117 6 8 18 42 25 75 7 33 17 64 22 69 4 6 8 27 8 47 0 20 7 42
15 49 8 7 15 25 15 39 0 15 7 36 15 47 8 10 15 28 15 40 0 11 3 24 7 28 10 10
32 96 33 126 0 14 7 36 16 48 8 12 13 26 10 31 -3 4 1 17 9 27 8 10 15 31 15
45 0 14 7 34 15 45 8 10 15 29 15 41 0 12 4 25 10 28 6 3 10 18 10 33 0 25 43
168 61 204 5 10 9 28 9 42 0 13 7 29 15 36 9 7 15 29 15 55 0 26 6 48 15 55 8
7 15 23 15 36 0 14 4 32 9 42 18 36 61 179 61 204 0 15 5 30 10 33 6 3 10 16
10 28 0 12 7 31 15 41 8 11 15 32 15 47 0 14 6 32 14 38 8 7 14 20 14 29 0 9
5 31 10 47 6 17 16 57 23 90 7 33 16 64 21 69 4 6 8 19 8 30 0 12 7 30 15 40
8 11 15 32 15 47 0 14 7 32 15 39 8 7 15 29 15 49 0 20 4 41 8 47 5 5 15 36
22 69 7 33 19 67 25 75 14 17 24 56 32 117 3 23 11 47 19 54 8 6 14 23 14 38
0 15 4 31 9 37 5 5 16 36 26 69 9 33 21 68 26 77 5 10 9 33 9 52 0 19 5 38 10
41 6 3 10 19 10 34 0 16 7 34 15 41 8 7 15 24 15 39 0 14 7 35 15 45 8 11 15
30 15 42 0 13 4 26 10 29 5 3 10 23 10 44 0 20 5 42 11 48 7 7 12 20 13 30 3
27 28 107 38 118 4 5 8 20 8 35 0 14 7 34 15 44 8 11 15 36 15 57 0 20 7 42
15 49 8 7 15 21 15 31 0 10 4 28 9 41 5 13 14 43 21 68 7 25 16 53 21 62 5 10
9 32 9 50 0 18 7 42 15 52 8 11 15 32 15 47 0 14 7 32 15 39 8 7 15 20 15 29
0 18 25 96 42 128 6 12 8 29 4 38 -3 9 0 29 8 43 19 37 36 94 36 121 0 12 7
24 15 27 8 4 15 18 15 33 1 14 7 37 15 51 8 14 14 37 15 53 0 15 4 35 9 45 5
9 14 37 21 62 7 25 16 55 21 68 5 13 9 34 9 48 0 13 7 27 15 30 10 4 15 20 15
49 0 26 6 47 15 55 8 7 15 24 15 39 0 14 7 35 15 45 8 10 13 22 10 25 -2 4 7
38 21 77 13 38 24 81 24 96 0 15 4 30 10 33 6 3 10 16 10 29 0 12 7 31 15 42
8 10 15 31 15 45 0 15 7 32 15 39 8 7 15 25 15 41 0 15 5 31 10 34 6 3 10 18
10 33 1 31 21 111 33 130 5 7 11 25 13 40 3 15 9 31 15 37 5 5 9 21 9 36 0 15
7 32 15 39 9 7 15 29 15 51 0 21 4 40 9 43 5 4 12 24 16 46 4 22 11 42 16 46
5 3 9 16 9 29 0 13 5 27 10 30 6 3 10 19 10 35 0 16 5 32 10 35 6 3 10 19 10
34 0 16 7 34 15 41 8 7 15 29 15 49 0 21 7 46 15 57 8 10 15 30 15 44 0 15 4
30 8 35 5 6 14 30 21 55 7 25 20 61 28 81 8 20 12 46 9 57 -4 12 -1 26 9 35 8
9 15 26 15 39 0 13 7 32 15 42 8 11 15 32 15 47 0 15 7 29 15 33 10 3 14 17
13 38 -2 33 19 104 72 248 7 19 15 54 17 77 3 23 11 47 19 54 8 6 14 22 14 35
0 14 4 32 9 42 5 9 15 37 21 62 7 25 19 59 26 77 8 17 14 40 14 51 0 12 5 24
10 27 6 3 10 23 10 44 0 22 6 44 15 51 8 7 15 24 15 39 0 14 7 35 15 45 8 11
15 30 15 42 0 13 4 25 9 28 5 3 11 18 14 33 4 16 11 51 17 78 6 28 14 64 17
82 3 18 11 38 19 44 8 6 14 24 14 39 0 15 7 33 15 40 8 7 15 25 15 41 0 15 4
31 10 34 5 3 10 18 10 32 0 25 43 171 61 205 5 10 9 26 9 36 0 10 7 27 15 38
8 10 15 38 15 60 0 28 5 44 15 48 8 3 15 15 15 27 0 20 10 60 30 114 20 55 30
94 30 116 1 13 7 35 15 49 8 14 14 35 15 46 0 12 6 27 14 33 8 6 16 26 19 44
11 63 20 92 34 108 7 9 13 29 12 45 -1 16 8 56 20 89 11 33 21 67 21 76 0 9 7
22 15 29 8 7 15 25 15 39 0 15 7 36 15 47 8 10 15 34 15 52 0 18 4 40 9 50 5
9 14 37 21 62 7 25 16 53 21 62 11 21 12 58 2 58 -5 0 -1850 1 -4102 3 -3384
2 -4097 0 -4108 -11z"/>
<text transform="scale(1, -1)" font-size="3000" x="2800" y="-7000">3</text>
</g>
</svg>