<?xml version="1.0" standalone="no"?>
<!DOCTYPE svg PUBLIC "-//W3C//DTD SVG 20010904//EN"
 "http://www.w3.org/TR/2001/REC-SVG-20010904/DTD/svg10.dtd">
<svg version="1.0" xmlns="http://www.w3.org/2000/svg"
 width="900.000000pt" height="1332.000000pt" viewBox="0 0 900.000000 1332.000000"
 preserveAspectRatio="xMidYMid meet">
<g transform="translate(0.000000,1332.000000) scale(0.100000,-0.100000)"
stroke-width="42">
<path d="M350 6336 c0 -4077 3 -6135 10 -6138 5 -2 388 -2 850 0 l840 2 0 739
c0 616 2 740 14 750 10 8 110 11 346 11 183 -1 337 3 341 7 5 5 8 2428 7 5384
l-3 5374 -1202 3 -1203 2 0 -6134z"/>
<path d="M3295 12458 c-3 -7 -4 -2767 -3 -6133 l3 -6120 940 0 940 0 5 1365 5
1365 325 5 325 5 0 4760 0 4760 -1268 3 c-1009 2 -1269 0 -1272 -10z"/>
<path d="M6377 12463 c-11 -10 -8 -12251 2 -12258 7 -4 613 -8 889 -5 9 0 12
347 12 1703 l0 1704 23 21 c23 22 29 22 340 22 303 0 318 1 337 20 20 20 20
36 22 1027 l3 1008 310 5 310 5 3 3378 2 3377 -1123 0 c-618 0 -1127 -3 -1130
-7z"/>
</g>
</svg>
