<?xml version="1.0" standalone="no"?>
<!DOCTYPE svg PUBLIC "-//W3C//DTD SVG 20010904//EN"
 "http://www.w3.org/TR/2001/REC-SVG-20010904/DTD/svg10.dtd">
<svg version="1.0" xmlns="http://www.w3.org/2000/svg"
 width="900.000000pt" height="864.000000pt" viewBox="0 0 900.000000 864.000000"
 preserveAspectRatio="xMidYMid meet">
<g transform="translate(0.000000,864.000000) scale(0.100000,-0.100000)"
stroke-width="42">
<path d="M4555 8244 c-88 -118 -172 -230 -187 -248 -16 -19 -28 -36 -28 -40 0
-9 -93 -130 -107 -139 -7 -4 -13 -12 -13 -17 0 -9 -247 -350 -283 -391 -8 -9
-34 -45 -59 -80 -25 -35 -120 -164 -211 -286 -92 -123 -167 -227 -167 -232 0
-5 -7 -11 -15 -15 -8 -3 -15 -11 -15 -17 0 -7 -20 -35 -43 -63 -24 -28 -52
-64 -62 -81 -11 -16 -60 -84 -109 -150 -131 -176 -232 -313 -313 -425 -26 -36
-53 -69 -60 -73 -7 -4 -13 -12 -13 -18 0 -5 -61 -90 -135 -189 -74 -99 -135
-184 -135 -189 0 -6 -6 -14 -12 -18 -7 -4 -41 -46 -75 -93 -182 -247 -345
-468 -365 -494 -33 -41 -92 -123 -129 -178 -18 -27 -36 -48 -41 -48 -4 0 -8
-4 -8 -10 0 -5 -7 -18 -15 -27 -9 -10 -72 -94 -140 -188 -68 -93 -147 -200
-176 -237 -28 -36 -60 -81 -71 -100 -11 -18 -27 -37 -34 -41 -8 -4 -14 -12
-14 -17 0 -5 -67 -98 -149 -207 -81 -110 -153 -208 -159 -220 -11 -20 -3 -28
104 -105 64 -45 151 -109 195 -140 43 -32 83 -58 88 -58 5 0 11 -7 15 -15 3
-8 10 -15 16 -15 7 0 38 -20 70 -45 32 -25 63 -45 69 -45 5 0 14 -6 18 -13 4
-7 31 -28 58 -47 111 -75 133 -90 145 -105 7 -8 16 -15 21 -15 8 0 159 -108
215 -154 18 -14 36 -26 42 -26 5 0 15 -7 22 -15 29 -35 5 -63 360 420 93 127
194 262 224 301 31 40 56 75 56 78 0 3 67 96 149 205 83 109 158 212 168 228
22 36 87 122 131 172 17 21 32 41 32 45 0 3 74 106 165 228 91 123 205 277
253 343 49 66 130 175 180 243 51 67 92 127 92 132 0 5 6 13 14 17 12 7 40 44
94 123 9 14 82 113 162 220 80 107 153 208 163 223 10 16 25 36 33 45 36 41
284 383 284 392 0 5 6 13 13 17 14 9 107 130 107 139 0 4 12 20 26 38 14 17
84 110 154 206 71 96 139 188 151 204 12 16 34 45 47 65 14 20 27 38 31 41 11
9 71 89 71 95 0 3 34 51 75 105 41 54 75 104 75 109 0 6 6 14 13 18 14 9 114
139 165 215 l31 48 -87 67 c-48 37 -91 73 -95 80 -4 7 -13 13 -20 13 -7 0 -28
14 -47 31 -19 16 -71 58 -115 92 -44 34 -89 69 -100 79 -11 9 -60 48 -110 86
-49 39 -97 77 -106 85 -9 8 -63 49 -120 92 -57 44 -139 107 -182 142 -43 35
-85 63 -95 63 -11 0 -75 -78 -177 -216z"/>
<path d="M6080 7358 c-32 -46 -107 -148 -165 -228 -58 -80 -139 -192 -180
-250 -41 -58 -107 -150 -147 -204 -40 -55 -77 -108 -83 -117 -5 -10 -44 -63
-85 -119 -41 -56 -86 -118 -99 -138 -13 -20 -34 -47 -47 -61 -13 -14 -24 -28
-24 -32 0 -3 -30 -47 -67 -98 -38 -51 -102 -140 -143 -197 -41 -58 -115 -160
-164 -227 -105 -144 -119 -164 -236 -327 -49 -69 -109 -152 -133 -185 -24 -33
-61 -85 -82 -115 -21 -30 -46 -63 -56 -74 -11 -11 -19 -23 -19 -26 0 -4 -31
-49 -70 -101 -38 -52 -79 -107 -90 -124 -11 -16 -57 -78 -100 -137 -44 -59
-80 -110 -80 -113 0 -3 -42 -61 -92 -130 -51 -69 -120 -164 -153 -211 -33 -47
-65 -91 -70 -97 -33 -38 -75 -96 -75 -104 0 -4 -12 -21 -27 -38 -16 -16 -32
-37 -38 -47 -27 -47 -119 -174 -131 -181 -8 -4 -14 -13 -14 -19 0 -5 -13 -27
-30 -48 -16 -21 -30 -44 -30 -52 0 -8 37 -41 83 -73 139 -99 347 -255 347
-260 0 -3 -17 -29 -37 -58 -68 -96 -114 -162 -151 -217 -20 -30 -64 -91 -96
-134 -32 -44 -85 -119 -118 -167 -32 -48 -65 -92 -73 -99 -8 -7 -15 -18 -15
-25 0 -7 -7 -18 -15 -25 -22 -18 -115 -159 -115 -174 0 -13 41 -56 53 -56 4 0
47 -29 95 -65 48 -35 101 -74 117 -85 41 -29 186 -133 286 -205 45 -33 96 -68
113 -79 17 -10 34 -23 37 -28 4 -5 15 -15 27 -21 49 -29 152 -102 152 -109 0
-4 5 -8 10 -8 6 0 16 -5 23 -10 7 -6 42 -32 78 -58 37 -26 108 -76 159 -112
50 -36 136 -98 191 -137 54 -40 101 -73 104 -73 2 0 39 -26 82 -58 43 -32 99
-73 126 -92 l47 -33 25 23 c14 13 25 27 25 32 0 11 61 90 78 101 6 4 12 12 12
17 0 8 131 190 311 430 22 30 92 125 154 210 62 85 124 169 138 185 13 17 46
62 72 100 26 39 54 74 61 78 8 4 14 12 14 17 0 5 53 81 118 167 65 87 127 172
137 188 11 17 26 37 34 46 9 9 34 41 56 73 45 63 349 474 365 493 5 7 10 17
10 23 0 5 5 10 10 10 6 0 14 8 17 18 4 9 32 49 62 89 31 39 125 165 209 280
386 526 494 673 546 739 31 40 56 75 56 78 0 3 74 106 165 228 194 262 197
266 416 563 93 127 216 294 274 372 58 78 105 150 105 160 -1 17 -201 174
-334 262 -28 18 -53 37 -56 41 -3 5 -30 25 -60 46 -30 21 -61 44 -69 52 -8 7
-26 21 -40 30 -14 9 -97 69 -183 134 -87 65 -162 118 -167 118 -6 0 -14 6 -18
14 -4 7 -27 26 -49 42 -23 16 -69 49 -103 74 -33 25 -156 116 -273 202 -117
86 -245 182 -284 212 -40 31 -75 56 -79 56 -5 0 -108 75 -305 225 -72 55 -158
115 -165 115 -3 0 -32 -37 -65 -82z"/>
<path d="M498 3695 c-18 -25 -59 -78 -90 -118 -32 -39 -58 -77 -58 -84 0 -7
-6 -16 -13 -20 -7 -4 -25 -24 -40 -44 -26 -35 -27 -37 -10 -57 19 -21 224
-175 308 -231 28 -18 54 -40 58 -47 4 -8 12 -14 18 -14 5 0 58 -36 117 -80
189 -140 215 -159 327 -240 61 -43 135 -97 165 -120 104 -77 321 -235 398
-289 42 -30 81 -60 85 -68 4 -7 12 -13 18 -13 5 0 55 -34 109 -75 54 -41 102
-75 105 -75 6 0 78 -54 104 -78 7 -7 26 -21 40 -30 14 -9 60 -41 101 -72 41
-31 87 -63 101 -72 14 -9 33 -23 40 -30 26 -24 98 -78 104 -78 3 0 51 -34 105
-75 54 -41 104 -75 109 -75 6 0 14 -6 18 -12 9 -14 89 -78 97 -78 3 0 68 -47
145 -105 77 -57 153 -112 168 -122 16 -10 51 -35 79 -56 27 -21 99 -74 159
-118 61 -43 128 -92 150 -108 225 -167 286 -211 295 -211 5 0 13 -6 17 -14 4
-7 29 -28 54 -45 25 -17 52 -37 59 -46 7 -8 16 -15 21 -15 5 0 64 -41 131 -91
68 -51 141 -105 163 -121 22 -15 86 -62 142 -103 57 -41 111 -75 121 -75 30 0
65 43 207 254 l59 88 -44 39 c-73 64 -80 70 -124 100 -90 63 -137 97 -232 167
-104 76 -470 343 -564 411 -116 83 -246 180 -276 205 -18 14 -35 26 -39 26 -4
0 -31 18 -59 41 -28 22 -109 83 -181 134 -71 52 -139 101 -150 109 -250 186
-306 226 -313 226 -4 0 -20 14 -36 30 -16 17 -33 30 -38 30 -4 0 -79 53 -166
118 -87 64 -178 131 -203 148 -80 56 -334 242 -351 258 -9 8 -29 23 -45 33
-15 9 -90 64 -166 120 -75 57 -140 103 -142 103 -3 0 -81 56 -173 125 -92 68
-180 134 -197 145 -16 12 -91 65 -165 120 -74 54 -148 108 -165 120 -16 11
-78 57 -137 100 -59 44 -112 80 -117 80 -6 0 -14 6 -18 13 -11 17 -131 107
-143 107 -5 0 -24 -20 -42 -45z"/>
</g>
</svg>
