<?xml version="1.0" standalone="no"?>
<!DOCTYPE svg PUBLIC "-//W3C//DTD SVG 20010904//EN"
 "http://www.w3.org/TR/2001/REC-SVG-20010904/DTD/svg10.dtd">
<svg version="1.0" xmlns="http://www.w3.org/2000/svg"
 width="900.000000pt" height="1332.000000pt" viewBox="0 0 900.000000 1332.000000"
 preserveAspectRatio="xMidYMid meet">
<g transform="translate(0.000000,1332.000000) scale(0.100000,-0.100000)"
stroke-width="42">
<path d="M2816 11169 c-3 -8 -7 -30 -9 -49 -7 -45 -40 -159 -54 -185 -6 -11
-9 -32 -6 -46 3 -16 -1 -30 -11 -38 -9 -8 -16 -25 -16 -40 0 -14 -7 -35 -15
-45 -8 -11 -15 -36 -15 -56 0 -20 -3 -40 -7 -44 -10 -10 -33 -78 -33 -99 0
-24 -30 -119 -41 -131 -5 -6 -9 -22 -9 -37 0 -15 -7 -32 -15 -39 -8 -7 -15
-27 -15 -44 0 -17 -9 -56 -20 -86 -11 -30 -20 -69 -20 -87 0 -17 -4 -35 -10
-38 -5 -3 -10 -16 -10 -28 0 -12 -7 -31 -15 -41 -8 -11 -15 -36 -15 -55 0 -20
-7 -45 -15 -55 -8 -11 -15 -30 -15 -42 0 -13 -4 -25 -9 -28 -5 -3 -11 -18 -14
-33 -4 -16 -11 -50 -17 -78 -6 -27 -14 -65 -17 -83 -3 -19 -12 -36 -19 -39 -9
-3 -14 -21 -14 -48 0 -26 -6 -47 -15 -55 -8 -7 -15 -25 -15 -41 0 -15 -4 -31
-10 -34 -5 -3 -10 -18 -10 -32 0 -30 -11 -67 -50 -173 -7 -19 -15 -54 -17 -77
-3 -23 -11 -47 -19 -54 -8 -6 -14 -22 -14 -35 0 -12 -4 -26 -10 -29 -5 -3 -10
-20 -10 -37 0 -31 -15 -87 -31 -120 -5 -10 -9 -36 -9 -58 0 -27 -5 -43 -15
-46 -8 -4 -15 -18 -15 -33 0 -15 -4 -31 -9 -37 -11 -12 -41 -108 -41 -131 0
-10 -9 -43 -20 -73 -11 -30 -20 -66 -20 -80 -1 -14 -7 -36 -15 -50 -8 -14 -14
-35 -15 -46 0 -12 -7 -27 -15 -34 -9 -7 -15 -29 -15 -51 0 -21 -4 -40 -8 -43
-5 -3 -14 -35 -22 -71 -8 -36 -17 -68 -22 -71 -4 -3 -8 -16 -8 -28 0 -13 -7
-29 -15 -36 -8 -7 -15 -27 -15 -45 0 -18 -7 -38 -15 -45 -8 -7 -15 -28 -15
-46 0 -19 -4 -42 -9 -52 -5 -9 -14 -37 -21 -62 -7 -25 -16 -53 -21 -62 -5 -10
-9 -28 -9 -42 0 -13 -7 -29 -15 -36 -8 -7 -15 -29 -15 -49 0 -20 -4 -41 -9
-46 -5 -6 -16 -37 -26 -70 -9 -33 -21 -68 -26 -77 -5 -10 -9 -27 -9 -37 0 -11
-5 -23 -10 -26 -5 -3 -10 -19 -10 -35 0 -16 -7 -35 -15 -44 -8 -8 -15 -32 -15
-55 0 -23 -4 -41 -10 -41 -5 0 -12 -12 -16 -27 -11 -53 -46 -168 -55 -185 -5
-10 -9 -30 -9 -46 0 -15 -7 -37 -15 -48 -8 -10 -15 -31 -15 -45 0 -15 -6 -32
-14 -38 -8 -7 -14 -20 -14 -29 1 -19 -38 -147 -53 -174 -5 -10 -9 -33 -9 -52
0 -18 -7 -39 -15 -46 -8 -7 -15 -23 -15 -37 0 -13 -7 -37 -15 -53 -9 -17 -13
-30 -9 -30 3 0 0 -10 -8 -22 -8 -13 -20 -50 -28 -83 -7 -33 -17 -64 -22 -70
-4 -5 -8 -26 -8 -46 0 -20 -7 -42 -15 -49 -8 -7 -15 -20 -15 -28 0 -14 -14
-60 -38 -122 -3 -8 -7 -22 -8 -30 -1 -8 -12 -40 -23 -70 -12 -30 -21 -69 -21
-86 0 -17 -7 -37 -15 -44 -8 -7 -15 -24 -15 -39 0 -15 -4 -31 -8 -36 -4 -6
-16 -37 -26 -70 -10 -33 -22 -68 -27 -77 -5 -10 -9 -27 -9 -37 0 -11 -5 -23
-10 -26 -6 -3 -10 -23 -10 -44 0 -20 -7 -46 -15 -57 -8 -10 -15 -31 -15 -46 0
-16 -4 -28 -10 -28 -5 0 -10 -8 -10 -17 0 -10 -11 -49 -25 -88 -13 -38 -25
-78 -25 -87 0 -10 -4 -18 -10 -18 -5 0 -10 -20 -10 -44 0 -26 -6 -48 -15 -56
-8 -7 -15 -25 -15 -41 0 -15 -5 -31 -10 -34 -6 -3 -10 -15 -10 -26 0 -10 -4
-27 -9 -37 -5 -9 -17 -44 -27 -77 -10 -33 -22 -64 -26 -69 -4 -6 -8 -27 -8
-47 0 -20 -7 -42 -15 -49 -8 -7 -15 -21 -15 -32 0 -18 -29 -116 -50 -173 -29
-75 -40 -115 -40 -142 0 -17 -7 -36 -15 -43 -8 -7 -15 -22 -15 -34 0 -12 -4
-26 -8 -32 -5 -5 -15 -36 -22 -69 -8 -33 -20 -69 -27 -81 -7 -11 -10 -23 -7
-27 3 -3 -1 -16 -10 -29 -9 -12 -16 -38 -16 -58 0 -19 -7 -44 -15 -54 -8 -11
-15 -30 -15 -42 0 -13 -4 -25 -8 -28 -5 -3 -15 -31 -22 -63 -8 -32 -20 -69
-26 -82 -7 -13 -10 -29 -8 -36 3 -6 -2 -18 -11 -25 -37 -31 -6 -129 48 -146
22 -7 49 -27 126 -91 21 -18 46 -33 54 -33 9 0 20 -6 24 -13 9 -15 140 -105
189 -130 19 -9 34 -22 34 -27 0 -6 6 -10 13 -10 7 0 28 -13 47 -30 19 -16 41
-29 49 -30 8 0 29 -16 48 -35 19 -19 40 -35 47 -35 7 0 23 -11 36 -25 13 -14
29 -25 35 -25 6 0 22 -11 35 -25 13 -14 29 -25 37 -25 7 0 21 -9 30 -20 10
-11 25 -20 33 -20 9 0 29 -14 45 -30 16 -17 36 -30 45 -30 8 0 27 -12 41 -27
13 -16 36 -35 51 -43 58 -33 174 -114 181 -127 4 -7 16 -13 26 -13 10 0 24 -7
32 -16 7 -8 25 -22 41 -30 16 -8 41 -28 56 -43 15 -16 37 -31 48 -35 12 -4 29
-15 39 -26 10 -11 23 -20 30 -20 7 0 20 -9 30 -20 10 -11 23 -20 29 -20 6 0
23 -11 38 -25 15 -14 38 -30 50 -36 42 -19 69 -36 98 -64 16 -16 45 -38 64
-49 63 -39 114 -75 121 -86 3 -5 15 -10 26 -10 10 0 19 -4 19 -9 0 -8 106 -81
119 -81 4 0 22 -16 41 -35 19 -19 39 -35 44 -36 6 0 38 -20 71 -45 33 -24 71
-50 85 -56 14 -7 29 -18 33 -25 4 -7 14 -13 21 -13 7 0 29 -13 47 -30 19 -16
38 -30 43 -30 5 0 26 -16 47 -35 22 -19 46 -35 54 -35 7 0 18 -6 22 -14 4 -8
22 -22 39 -32 59 -36 112 -73 119 -84 3 -5 15 -10 25 -10 10 0 23 -6 27 -13 4
-8 40 -34 79 -60 39 -25 81 -55 95 -66 13 -12 53 -40 89 -63 36 -23 69 -47 73
-55 4 -7 17 -13 27 -13 10 0 23 -6 27 -14 4 -7 25 -21 46 -31 37 -17 38 -17
62 5 14 13 25 29 25 36 0 7 17 33 38 58 54 66 77 98 92 126 7 14 19 29 26 33
8 4 14 15 14 24 0 14 15 36 86 121 17 20 34 47 38 58 4 12 15 29 26 39 11 10
20 23 20 30 0 7 9 20 20 30 11 10 20 23 20 30 0 6 13 25 30 41 16 16 30 36 30
45 0 8 14 28 30 44 17 16 30 33 30 39 0 5 9 19 19 30 11 12 27 35 38 52 34 58
72 112 83 119 5 3 10 13 10 20 0 8 15 29 33 48 30 31 50 60 86 126 8 15 20 30
28 34 7 4 13 12 13 18 0 14 75 120 104 148 14 14 26 30 26 38 0 7 9 21 20 30
11 10 20 24 20 31 0 8 12 26 26 41 26 28 43 55 68 106 8 17 24 39 36 50 12 11
43 52 68 90 25 39 51 74 59 78 7 4 13 16 13 26 0 10 7 24 16 32 8 7 22 26 31
42 8 17 28 41 44 54 16 14 29 31 29 38 0 7 11 27 25 43 14 17 25 34 25 39 0 6
9 18 20 28 11 10 20 23 20 29 0 6 14 26 30 45 17 18 30 39 30 45 0 7 14 25 30
41 17 16 30 34 30 41 0 6 7 17 16 25 8 7 24 29 35 48 11 20 37 61 59 91 22 30
40 60 40 65 1 6 14 21 30 35 17 13 30 30 30 37 0 7 13 27 29 45 15 18 31 43
35 55 4 11 13 24 21 27 8 3 15 12 15 21 0 8 17 34 38 58 37 42 47 56 80 111 9
16 25 36 35 45 9 8 17 22 17 29 0 8 14 30 30 49 17 18 30 39 30 46 1 7 14 23
30 37 17 13 30 30 30 36 0 7 10 25 23 41 12 15 27 35 32 44 41 66 70 105 81
112 8 4 14 16 14 26 0 9 14 30 30 46 17 16 30 33 30 39 0 5 9 19 19 30 11 12
27 35 38 52 31 53 56 88 90 127 18 20 33 43 33 50 1 6 14 23 30 37 17 13 30
30 30 38 0 8 20 37 45 64 25 28 45 54 45 60 0 5 14 21 30 35 17 13 30 31 30
38 0 8 17 34 37 59 21 25 55 66 76 92 20 25 37 51 37 57 1 7 14 23 30 37 17
13 30 31 30 40 0 9 14 29 30 45 17 16 30 34 30 39 0 6 16 28 35 49 19 21 35
44 35 51 0 6 16 27 35 46 19 19 35 39 35 45 0 6 16 26 35 45 19 19 35 41 35
49 1 9 14 27 30 41 17 13 30 29 30 36 0 6 20 34 45 62 25 27 45 54 45 59 0 4
12 21 27 38 15 16 34 41 43 56 27 49 67 104 89 123 11 11 21 24 21 31 0 6 13
24 28 41 16 16 40 47 54 69 14 22 35 49 47 59 11 11 21 24 21 31 0 7 16 28 35
48 19 20 35 42 35 50 0 7 16 28 35 47 19 19 35 39 35 45 0 6 16 26 35 45 19
19 35 38 35 43 0 5 14 26 30 47 17 21 30 42 30 47 0 5 14 22 30 38 17 16 30
34 30 41 0 7 16 28 35 47 19 19 35 39 35 46 0 6 18 31 40 55 22 24 40 48 40
53 0 5 12 20 26 34 14 13 35 41 47 61 11 21 24 38 29 38 13 0 9 18 -9 40 -10
11 -26 20 -36 20 -9 0 -20 7 -23 15 -3 8 -16 17 -27 21 -12 4 -41 23 -64 43
-97 83 -121 101 -131 101 -5 0 -25 14 -43 31 -19 18 -50 42 -69 54 -19 12 -44
32 -54 44 -11 11 -26 21 -34 21 -8 0 -30 16 -49 35 -19 19 -40 35 -47 35 -7 0
-23 11 -36 25 -13 14 -29 25 -35 25 -6 0 -22 12 -36 26 -13 14 -37 33 -54 41
-16 9 -46 31 -65 49 -19 19 -39 34 -45 34 -6 0 -24 14 -40 30 -16 17 -36 30
-45 30 -8 0 -27 13 -40 28 -14 15 -39 37 -56 47 -71 45 -110 74 -133 99 -14
14 -30 26 -37 26 -7 0 -28 16 -47 35 -19 19 -41 35 -49 35 -8 0 -27 14 -43 30
-16 17 -34 30 -39 30 -6 0 -30 17 -52 38 -23 20 -56 46 -75 57 -18 11 -41 25
-52 31 -10 7 -33 26 -51 43 -17 17 -37 31 -43 31 -7 0 -27 16 -46 35 -19 19
-41 35 -49 35 -8 0 -27 14 -44 31 -16 17 -44 37 -61 46 -18 8 -33 19 -33 24 0
5 -33 30 -72 56 -40 26 -90 62 -111 80 -20 18 -43 33 -50 33 -6 1 -23 14 -37
30 -13 17 -30 30 -37 30 -7 0 -36 20 -65 45 -108 91 -123 102 -144 109 -12 4
-29 15 -39 26 -10 11 -23 20 -30 20 -6 0 -26 16 -45 35 -19 19 -39 35 -44 35
-6 0 -28 16 -49 35 -21 19 -42 35 -46 35 -4 0 -27 18 -52 40 -24 22 -48 40
-53 40 -5 0 -26 16 -47 35 -22 19 -45 35 -52 35 -7 0 -28 16 -47 35 -19 19
-39 35 -45 35 -7 0 -20 9 -30 20 -10 11 -23 20 -29 20 -6 0 -33 20 -61 45 -27
25 -55 45 -62 45 -6 0 -23 14 -36 30 -14 17 -32 30 -39 30 -8 0 -29 16 -48 35
-19 19 -39 35 -45 35 -6 0 -22 12 -36 26 -13 14 -40 35 -59 45 -47 26 -98 64
-137 99 -17 17 -38 30 -46 30 -8 0 -27 14 -40 30 -14 17 -30 30 -36 30 -5 0
-30 17 -55 38 -25 20 -66 54 -92 75 -25 20 -50 37 -56 37 -10 0 -39 21 -117
88 -21 17 -44 32 -51 32 -7 0 -28 16 -47 35 -19 19 -39 35 -45 35 -6 0 -30 17
-54 38 -92 79 -122 102 -131 102 -5 0 -24 13 -43 30 -19 16 -40 29 -46 30 -5
0 -23 14 -39 30 -16 17 -36 30 -45 30 -8 0 -27 13 -40 28 -14 15 -41 37 -60
49 -20 12 -46 33 -59 47 -14 14 -30 26 -36 26 -6 0 -22 12 -36 26 -13 14 -41
35 -61 45 -21 11 -38 24 -38 29 0 5 -11 12 -24 16 -13 3 -36 19 -52 35 -15 16
-33 29 -38 29 -6 0 -34 20 -61 45 -28 25 -54 45 -59 45 -8 0 -34 20 -129 101
-23 20 -52 40 -64 43 -13 4 -23 11 -23 16 0 5 -10 12 -22 16 -13 3 -31 13 -40
22 -15 12 -18 12 -22 1z"/>
</g>
</svg>
