<?xml version="1.0" standalone="no"?>
<!DOCTYPE svg PUBLIC "-//W3C//DTD SVG 20010904//EN"
 "http://www.w3.org/TR/2001/REC-SVG-20010904/DTD/svg10.dtd">
<svg version="1.0" xmlns="http://www.w3.org/2000/svg"
 width="900.000000pt" height="1332.000000pt" viewBox="0 0 900.000000 1332.000000"
 preserveAspectRatio="xMidYMid meet">
<g transform="translate(0.000000,1332.000000) scale(0.100000,-0.100000)"
stroke-width="42">
<path d="M352 9093 l3 -3378 310 -5 310 -5 3 -1008 c2 -991 2 -1007 22 -1027
19 -19 34 -20 338 -20 l319 0 21 -23 22 -23 0 -1702 c0 -1355 3 -1702 13
-1702 335 -3 883 2 889 8 4 4 7 2764 6 6133 l-3 6124 -1128 3 -1127 2 2 -3377z"/>
<path d="M3145 12458 c-3 -7 -4 -2150 -3 -4763 l3 -4750 325 -5 325 -5 5
-1365 5 -1365 940 0 940 0 0 6130 0 6130 -1268 3 c-1009 2 -1269 0 -1272 -10z"/>
<path d="M6227 12463 c-12 -11 -8 -10751 3 -10758 5 -3 159 -6 341 -5 235 0
335 -3 345 -11 12 -10 14 -134 14 -750 l0 -739 840 -2 c462 -2 845 -1 850 0 7
3 10 2061 10 6138 l0 6134 -1198 0 c-659 0 -1202 -3 -1205 -7z"/>
</g>
</svg>
