<?xml version="1.0" standalone="no"?>
<!DOCTYPE svg PUBLIC "-//W3C//DTD SVG 20010904//EN"
 "http://www.w3.org/TR/2001/REC-SVG-20010904/DTD/svg10.dtd">
<svg version="1.0" xmlns="http://www.w3.org/2000/svg"
 width="900.000000pt" height="858.000000pt" viewBox="0 0 900.000000 858.000000"
 preserveAspectRatio="xMidYMid meet">
<g transform="translate(0.000000,858.000000) scale(0.100000,-0.100000)"
stroke-width="42">
<path d="M4429 8182 c-16 -7 -47 -31 -128 -99 -21 -18 -43 -33 -48 -33 -6 0
-18 -9 -28 -20 -10 -11 -27 -22 -38 -26 -11 -3 -31 -19 -45 -35 -13 -16 -32
-29 -42 -29 -10 0 -30 -13 -43 -30 -14 -16 -30 -30 -35 -30 -9 0 -53 -31 -115
-82 -35 -28 -75 -55 -102 -67 -11 -5 -33 -22 -50 -38 -16 -15 -37 -32 -46 -38
-27 -16 -103 -73 -120 -90 -9 -8 -22 -15 -29 -15 -7 0 -30 -15 -50 -32 -21
-18 -55 -44 -75 -58 -20 -14 -54 -40 -75 -57 -20 -18 -42 -33 -47 -33 -5 0
-22 -13 -38 -30 -16 -16 -34 -30 -40 -30 -11 0 -27 -11 -97 -68 -23 -18 -53
-39 -67 -47 -14 -7 -36 -25 -48 -39 -13 -14 -28 -26 -33 -26 -12 0 -56 -30
-112 -75 -70 -57 -96 -75 -108 -75 -6 0 -23 -13 -37 -30 -13 -16 -32 -30 -40
-30 -9 0 -31 -16 -50 -35 -19 -19 -39 -35 -44 -35 -12 0 -47 -26 -108 -77 -21
-18 -43 -33 -48 -33 -5 0 -22 -13 -38 -30 -16 -16 -33 -30 -38 -30 -10 0 -46
-26 -105 -76 -20 -17 -47 -34 -59 -38 -11 -4 -24 -13 -27 -21 -3 -8 -13 -15
-23 -15 -10 0 -34 -16 -53 -35 -19 -19 -38 -35 -43 -35 -5 0 -27 -15 -48 -32
-59 -51 -96 -78 -106 -78 -5 0 -22 -13 -38 -30 -16 -16 -33 -30 -38 -30 -9 0
-61 -37 -121 -87 -22 -18 -44 -33 -49 -33 -6 0 -23 -13 -39 -30 -15 -16 -34
-30 -42 -30 -7 0 -21 -9 -31 -20 -10 -11 -22 -20 -28 -20 -5 0 -27 -15 -48
-32 -97 -83 -173 -138 -187 -138 -4 0 -21 -12 -38 -27 -38 -34 -122 -93 -132
-93 -5 0 -21 -13 -37 -30 -16 -16 -34 -30 -40 -30 -6 0 -24 -13 -40 -30 -16
-16 -33 -30 -38 -30 -9 0 -40 -22 -113 -82 -25 -21 -51 -38 -59 -38 -7 0 -15
-7 -19 -15 -3 -8 -11 -15 -18 -15 -8 0 -28 -14 -46 -30 -18 -17 -44 -36 -56
-43 -33 -17 -96 -75 -96 -87 0 -12 211 -221 260 -258 19 -14 105 -96 191 -182
86 -86 173 -169 195 -185 21 -16 105 -94 185 -173 81 -80 156 -150 168 -156
11 -7 90 -78 173 -159 402 -388 486 -467 494 -467 5 0 70 -61 144 -135 74 -74
140 -135 147 -135 6 0 61 -50 121 -110 61 -61 115 -110 120 -110 6 0 80 -70
166 -155 86 -85 160 -155 165 -155 5 0 72 -63 149 -140 77 -77 146 -140 153
-140 8 0 81 -68 163 -150 82 -83 154 -150 159 -150 6 0 85 -72 176 -160 91
-88 236 -225 321 -305 85 -80 228 -214 317 -298 89 -83 237 -222 328 -307 91
-85 237 -224 324 -307 87 -84 163 -153 168 -153 6 0 78 -68 160 -150 83 -83
157 -150 165 -150 9 0 21 -7 28 -15 7 -8 19 -15 27 -15 7 0 59 35 114 77 55
43 112 85 127 93 15 8 31 21 35 28 4 6 14 12 20 12 7 0 26 12 43 27 16 16 48
40 70 56 21 15 59 43 84 61 25 19 50 35 56 35 5 1 23 14 40 29 16 15 43 36 59
46 17 11 37 25 45 33 35 32 94 73 105 73 6 0 24 14 40 30 16 17 33 30 38 30 5
0 27 15 47 33 21 17 55 43 75 57 20 14 54 40 75 58 20 17 43 32 49 32 7 0 24
14 38 30 13 17 33 30 43 30 11 0 23 6 27 13 4 7 26 25 48 40 76 53 110 78 136
103 14 13 28 24 32 24 3 0 22 11 42 24 35 24 56 41 148 116 27 22 54 40 62 40
7 0 15 7 19 15 3 8 13 15 23 15 10 0 34 16 53 35 19 19 38 35 43 35 5 0 27 15
48 33 93 78 162 129 187 138 6 2 25 16 44 31 18 15 60 48 93 73 33 25 69 52
80 60 10 8 23 15 28 15 5 0 27 15 48 33 84 70 116 95 169 129 30 20 64 45 74
57 11 12 26 21 35 21 9 0 28 13 42 29 14 15 35 31 47 35 37 12 38 50 3 95 -17
21 -31 43 -31 48 0 5 -13 22 -30 38 -16 16 -30 33 -30 38 0 5 -9 21 -21 35
-84 110 -99 131 -99 141 0 6 -4 11 -10 11 -5 0 -17 15 -25 33 -8 17 -35 57
-60 87 -25 30 -50 64 -55 75 -14 28 -41 68 -68 102 -52 64 -82 106 -82 117 -1
6 -14 22 -30 36 -17 13 -30 31 -30 40 0 10 -9 25 -20 35 -11 10 -20 23 -20 30
0 7 -10 20 -21 31 -24 21 -50 58 -128 182 -18 28 -36 52 -39 52 -4 0 -23 25
-42 56 -19 30 -47 70 -62 89 -16 18 -28 36 -28 41 0 4 -9 17 -19 28 -23 25
-54 67 -117 161 -26 39 -53 75 -60 80 -6 6 -25 30 -40 55 -45 72 -48 75 -75
116 -15 21 -36 48 -48 58 -11 11 -21 24 -21 31 0 7 -9 20 -20 30 -11 10 -20
25 -20 35 0 9 -13 27 -30 40 -16 14 -29 30 -30 36 0 11 -30 53 -82 117 -29 36
-55 76 -67 102 -5 11 -23 34 -40 50 -17 17 -31 34 -31 39 0 4 -11 21 -25 38
-14 16 -25 35 -25 43 0 7 -7 15 -15 19 -8 3 -15 10 -15 17 0 10 -15 31 -99
141 -12 14 -21 30 -21 35 0 5 -13 22 -30 38 -16 16 -30 32 -30 36 0 11 -64
103 -94 135 -14 16 -26 33 -26 37 0 5 -34 54 -75 108 -41 55 -75 102 -75 104
0 7 -62 98 -89 131 -47 58 -61 78 -61 89 0 6 -13 24 -30 40 -16 16 -30 34 -30
40 0 7 -10 20 -21 31 -12 10 -32 35 -45 54 -55 82 -87 126 -100 133 -8 4 -14
16 -14 27 0 10 -13 30 -30 43 -16 14 -30 29 -30 34 -1 16 -60 98 -146 201 -17
20 -34 47 -38 60 -4 12 -11 22 -15 22 -4 0 -12 10 -18 23 -6 12 -26 41 -44 64
-58 71 -69 87 -69 98 0 6 -13 24 -30 40 -16 16 -30 33 -30 38 0 5 -15 27 -32
48 -52 61 -78 96 -78 108 0 5 -16 25 -35 44 -19 19 -35 41 -35 50 0 8 -13 27
-30 40 -16 14 -30 29 -30 34 -1 16 -63 102 -147 202 -18 21 -33 44 -33 51 0 7
-7 20 -15 29 -16 17 -73 92 -90 120 -5 9 -23 31 -39 48 -28 31 -47 60 -62 93
-4 8 -17 26 -30 40 -23 25 -51 62 -101 135 -15 22 -33 44 -40 48 -7 4 -13 15
-13 24 0 8 -15 33 -32 53 -18 21 -49 60 -68 86 -60 81 -94 113 -111 106z"/>
</g>
</svg>
