<?xml version="1.0" standalone="no"?>
<!DOCTYPE svg PUBLIC "-//W3C//DTD SVG 20010904//EN"
 "http://www.w3.org/TR/2001/REC-SVG-20010904/DTD/svg10.dtd">
<svg version="1.0" xmlns="http://www.w3.org/2000/svg"
 width="900.000000pt" height="645.000000pt" viewBox="0 0 900.000000 645.000000"
 preserveAspectRatio="xMidYMid meet">
<metadata>
Created by potrace 1.10, written by Peter Selinger 2001-2011
</metadata>
<g transform="translate(0.000000,645.000000) scale(0.100000,-0.100000)"
fill="#000000" stroke="none">
<path d="M76 6304 c-3 -9 -6 -1414 -6 -3123 0 -2470 3 -3111 13 -3124 11 -16
285 -17 4427 -15 l4415 3 0 3135 0 3135 -4421 3 c-4026 2 -4422 1 -4428 -14z
m8798 -47 c8 -3 11 -883 12 -3085 l0 -3082 -4383 0 -4383 0 0 3084 0 3085 23
3 c31 4 8718 -1 8731 -5z"/>
<path d="M1690 4081 c-109 -14 -195 -55 -266 -125 -155 -156 -157 -385 -4
-534 63 -61 67 -64 120 -89 85 -40 118 -53 133 -53 8 0 31 -7 50 -15 20 -8 47
-15 61 -15 13 0 37 -7 52 -15 16 -8 43 -15 61 -15 17 0 34 -4 37 -9 3 -5 22
-12 42 -15 73 -14 134 -72 134 -129 0 -43 -37 -105 -78 -131 -55 -34 -162 -50
-245 -36 -106 19 -175 81 -205 186 -19 65 -26 68 -164 61 -149 -8 -161 -15
-152 -91 6 -50 16 -78 57 -166 25 -54 28 -58 94 -124 99 -100 237 -146 434
-146 63 1 132 5 154 10 22 5 60 13 85 19 189 41 332 221 334 421 1 70 -14 145
-35 180 -5 8 -14 26 -19 38 -28 65 -192 192 -248 192 -10 0 -22 4 -27 9 -6 6
-28 14 -50 20 -22 6 -60 15 -85 21 -25 7 -61 17 -80 23 -19 5 -51 14 -70 18
-59 13 -123 39 -157 65 -29 22 -33 31 -33 72 0 52 10 65 73 95 28 12 63 17
138 17 90 0 103 -2 141 -26 55 -35 75 -61 82 -105 3 -20 15 -44 26 -54 19 -17
27 -17 98 -7 42 7 102 12 133 12 33 0 61 5 67 13 12 14 -9 138 -30 177 -66
122 -139 185 -265 230 -45 16 -90 21 -198 25 -77 2 -165 0 -195 -4z"/>
<path d="M5610 4081 c-78 -9 -133 -29 -248 -90 -35 -18 -175 -158 -193 -193
-56 -106 -89 -181 -89 -201 0 -9 -7 -44 -16 -79 -13 -49 -15 -92 -11 -188 3
-69 10 -138 15 -155 6 -16 18 -57 28 -90 10 -33 31 -85 47 -115 32 -59 114
-170 125 -170 4 0 19 -10 32 -22 49 -43 83 -64 180 -107 93 -42 324 -64 430
-42 30 7 77 16 104 21 27 5 54 14 60 20 5 5 18 10 28 10 28 0 214 100 253 137
l35 33 -2 283 -3 282 -309 3 c-219 2 -313 -1 -322 -9 -18 -15 -20 -219 -2
-237 8 -8 59 -12 165 -12 l154 0 -3 -81 c-3 -82 -3 -82 -37 -100 -19 -10 -39
-23 -45 -29 -5 -5 -17 -10 -25 -10 -9 0 -29 -8 -46 -17 -23 -12 -58 -17 -150
-17 -106 -1 -125 2 -167 22 -145 72 -221 221 -222 442 -2 223 93 383 254 430
73 21 186 24 225 6 18 -9 40 -16 48 -16 25 0 114 -87 135 -134 12 -24 27 -46
34 -48 18 -7 156 10 179 22 10 6 31 10 48 10 51 0 61 8 61 54 0 23 -7 51 -15
62 -8 10 -15 26 -15 35 -1 64 -218 259 -287 259 -10 0 -24 5 -29 10 -24 24
-270 36 -404 21z"/>
<path d="M2540 4051 c-11 -21 -14 -191 -4 -228 6 -22 9 -23 208 -25 l201 -3 5
-570 5 -570 145 -3 c128 -2 146 -1 158 15 10 14 12 135 12 563 0 300 0 551 0
558 0 9 45 12 193 12 137 0 196 3 205 12 8 8 12 50 12 123 0 73 -4 115 -12
123 -9 9 -148 12 -565 12 -536 0 -553 -1 -563 -19z"/>
<path d="M4088 4048 c-8 -13 -18 -34 -22 -48 -4 -14 -13 -38 -21 -55 -7 -16
-21 -50 -30 -75 -10 -25 -21 -54 -26 -65 -4 -11 -18 -45 -30 -75 -12 -30 -28
-69 -35 -87 -8 -17 -14 -37 -14 -45 0 -7 -7 -22 -15 -32 -8 -11 -15 -28 -15
-37 0 -10 -6 -30 -14 -46 -8 -15 -22 -48 -32 -73 -9 -25 -23 -59 -30 -77 -8
-17 -14 -36 -14 -41 0 -6 -6 -23 -14 -39 -8 -15 -22 -48 -32 -73 -9 -25 -23
-59 -30 -77 -8 -17 -14 -36 -14 -41 0 -6 -6 -23 -14 -39 -8 -15 -22 -48 -32
-73 -9 -25 -23 -59 -30 -77 -8 -17 -14 -37 -14 -45 0 -7 -7 -22 -15 -32 -8
-11 -15 -28 -15 -37 0 -10 -8 -30 -17 -47 -33 -57 -21 -62 150 -62 168 0 168
0 185 60 6 19 20 60 32 90 12 30 24 66 27 80 3 14 13 35 22 48 16 23 17 23
274 24 262 1 287 -3 287 -38 0 -7 6 -28 14 -46 8 -18 22 -53 31 -78 10 -25 27
-66 39 -92 l21 -48 155 0 c100 0 160 4 167 11 8 8 6 24 -9 57 -10 26 -24 58
-30 72 -5 14 -16 38 -24 53 -8 16 -14 33 -14 39 0 11 -23 66 -46 111 -8 16
-14 33 -14 39 0 11 -23 66 -46 111 -8 16 -14 33 -14 39 0 5 -7 26 -16 46 -8
21 -21 51 -28 67 -8 17 -21 50 -31 75 -9 25 -23 59 -30 75 -7 17 -20 50 -30
75 -9 25 -23 59 -30 75 -7 17 -20 50 -30 75 -22 57 -43 107 -61 143 -8 16 -14
35 -14 44 0 8 -6 27 -14 41 -25 48 -46 102 -46 117 0 8 -10 23 -22 35 -20 18
-35 20 -169 20 -141 0 -147 -1 -161 -22z m182 -421 c0 -13 7 -32 15 -43 8 -10
15 -28 15 -39 0 -11 6 -29 14 -40 7 -11 16 -31 19 -45 3 -14 15 -50 26 -80 31
-78 51 -134 51 -142 0 -9 -304 -11 -312 -2 -3 3 3 29 14 57 11 29 22 61 25 72
3 11 11 34 19 52 8 17 14 38 14 46 0 9 4 18 9 22 5 3 13 20 17 38 3 17 12 45
20 62 7 16 15 38 18 48 8 26 36 21 36 -6z"/>
<path d="M6631 4056 c-8 -9 -10 -203 -9 -707 l3 -694 538 -3 537 -2 10 26 c13
33 13 175 0 208 l-9 26 -383 2 -383 3 -3 168 -2 167 22 1 c13 0 160 0 328 -1
188 -1 316 3 333 9 l27 11 0 119 c0 85 -4 122 -12 128 -7 4 -166 10 -353 13
l-340 5 -3 124 c-2 93 1 126 10 133 7 4 176 8 374 8 l362 0 6 23 c10 37 7 207
-4 228 -10 18 -27 19 -524 19 -421 0 -516 -2 -525 -14z"/>
</g>
</svg>
