<?xml version="1.0" standalone="no"?>
<!DOCTYPE svg PUBLIC "-//W3C//DTD SVG 20010904//EN"
 "http://www.w3.org/TR/2001/REC-SVG-20010904/DTD/svg10.dtd">
<svg version="1.0" xmlns="http://www.w3.org/2000/svg"
 width="900.000000pt" height="678.000000pt" viewBox="0 0 900.000000 678.000000"
 preserveAspectRatio="xMidYMid meet">
<metadata>
Created by potrace 1.10, written by Peter Selinger 2001-2011
</metadata>
<g transform="translate(0.000000,678.000000) scale(0.100000,-0.100000)"
fill="#a3a3a3" stroke="none">
<path d="M7916 6445 c12 -32 106 -34 112 -2 3 15 -5 17 -57 17 -50 0 -59 -3
-55 -15z"/>
<path d="M776 6343 c-104 -2 -175 -8 -183 -14 -10 -9 -13 -138 -13 -678 0
-434 -4 -671 -10 -677 -11 -11 -6 -3643 5 -3956 5 -136 9 -169 22 -180 13 -11
676 -13 3881 -16 2126 -1 3869 1 3874 6 6 6 11 3504 8 5510 0 9 -747 12 -3707
10 -2040 -1 -3784 -4 -3877 -5z"/>
</g>
</svg>
