<?xml version="1.0" standalone="no"?>
<!DOCTYPE svg PUBLIC "-//W3C//DTD SVG 20010904//EN"
 "http://www.w3.org/TR/2001/REC-SVG-20010904/DTD/svg10.dtd">
<svg version="1.0" xmlns="http://www.w3.org/2000/svg"
 width="222.000000pt" height="216.000000pt" viewBox="0 0 222.000000 216.000000"
 preserveAspectRatio="xMidYMid meet">
<metadata>
Created by potrace 1.10, written by Peter Selinger 2001-2011
</metadata>
<g transform="translate(0.000000,216.000000) scale(0.100000,-0.100000)"
fill="#3d3d3d" stroke="none">
<path d="M1182 1498 c-20 -20 -14 -41 24 -75 63 -56 48 -63 -129 -63 -162 0
-192 -7 -245 -56 -30 -28 -41 -108 -17 -118 24 -9 35 1 35 32 0 15 10 36 23
48 41 38 76 45 217 42 131 -3 135 -4 138 -26 2 -15 -6 -30 -27 -48 -17 -14
-31 -35 -31 -45 0 -34 28 -34 63 0 18 17 56 53 85 81 28 27 52 53 52 59 0 7
-166 181 -173 181 -2 0 -8 -5 -15 -12z"/>
<path d="M862 1017 c-45 -45 -82 -86 -82 -91 0 -10 101 -108 149 -144 29 -22
32 -22 47 -7 15 15 13 19 -26 56 -67 64 -57 69 127 69 146 1 161 3 198 24 22
12 45 33 51 45 7 13 17 28 23 34 14 14 14 64 0 72 -14 9 -59 -33 -59 -55 0
-21 -31 -50 -53 -50 -9 0 -19 -4 -22 -10 -4 -6 -65 -10 -149 -10 -137 0 -144
1 -149 21 -4 14 5 31 29 56 20 21 33 42 30 50 -4 8 -6 17 -6 19 0 19 -38 -9
-108 -79z"/>
</g>
</svg>
