<?xml version="1.0" standalone="no"?>
<!DOCTYPE svg PUBLIC "-//W3C//DTD SVG 20010904//EN"
 "http://www.w3.org/TR/2001/REC-SVG-20010904/DTD/svg10.dtd">
<svg version="1.0" xmlns="http://www.w3.org/2000/svg"
 width="414.000000pt" height="408.000000pt" viewBox="0 0 414.000000 408.000000"
 preserveAspectRatio="xMidYMid meet">
<metadata>
Created by potrace 1.10, written by Peter Selinger 2001-2011
</metadata>
<g transform="translate(0.000000,408.000000) scale(0.100000,-0.100000)"
fill="#000000" stroke="none">
<path d="M1870 3610 c-108 -14 -187 -28 -222 -39 -166 -53 -231 -77 -269 -100
-19 -11 -47 -27 -64 -35 -16 -7 -39 -22 -50 -32 -11 -11 -33 -28 -50 -38 -82
-52 -295 -291 -295 -331 0 -7 -4 -15 -8 -17 -9 -3 -72 -131 -95 -193 -39 -107
-48 -150 -69 -329 -12 -98 -10 -130 21 -328 14 -90 43 -173 104 -298 79 -161
172 -280 292 -375 28 -22 52 -43 55 -47 11 -14 204 -138 216 -138 7 0 25 -6
41 -14 45 -23 100 -46 111 -46 5 0 23 -7 38 -15 16 -8 38 -15 49 -15 11 0 54
-7 95 -16 82 -17 327 -15 385 5 28 9 64 18 155 41 38 9 110 35 138 49 9 5 40
19 67 32 28 12 67 33 87 46 21 13 46 23 56 23 11 0 177 -158 407 -387 l389
-387 133 140 c73 76 133 145 133 151 0 7 -172 186 -382 399 -211 212 -384 393
-386 403 -2 9 6 27 17 39 16 20 96 173 122 237 23 54 41 115 49 165 6 30 14
75 19 100 13 57 13 249 0 315 -5 28 -13 77 -18 109 -6 32 -15 64 -20 69 -6 6
-11 20 -11 30 0 21 -16 59 -67 162 -76 155 -161 265 -298 385 -122 107 -291
196 -435 230 -19 4 -48 12 -65 18 -80 26 -283 44 -375 32z m303 -456 c28 -10
66 -23 84 -31 17 -7 33 -13 36 -13 3 0 34 -17 69 -37 67 -40 244 -208 271
-258 105 -197 120 -249 121 -425 1 -152 -8 -199 -58 -310 -91 -203 -281 -369
-516 -451 -57 -20 -84 -23 -225 -22 -129 0 -166 3 -190 16 -16 9 -38 17 -47
17 -20 0 -110 47 -185 97 -55 36 -208 192 -224 227 -5 11 -18 35 -29 51 -11
17 -22 37 -26 45 -3 8 -10 26 -15 38 -49 122 -53 144 -52 307 0 129 3 166 16
190 9 17 17 37 17 45 0 23 63 142 103 198 68 92 192 201 292 255 63 34 183 74
245 81 73 9 261 -3 313 -20z"/>
</g>
</svg>
