 <svg  version="1.0" xmlns="http://www.w3.org/2000/svg"  width="900.000000pt" height="813.000000pt" viewBox="0 0 900.000000 813.000000"  preserveAspectRatio="xMidYMid meet">  <g transform="translate(0.000000,813.000000) scale(0.100000,-0.100000)" fill="#414449" stroke="none"> <path d="M205 8120 c7 -11 1 -14 -61 -29 -48 -13 -108 -67 -129 -118 -22 -51 -19 -145 5 -192 24 -48 83 -98 130 -111 19 -6 73 -10 120 -10 97 0 260 -22 305 -40 114 -46 164 -79 250 -165 117 -117 159 -197 199 -381 9 -40 16 -82 16 -95 0 -13 7 -57 14 -99 8 -41 22 -120 31 -175 9 -55 23 -136 30 -180 7 -44 21 -125 30 -180 9 -55 22 -136 30 -180 14 -83 34 -207 61 -372 8 -54 22 -132 29 -173 7 -41 20 -118 29 -170 34 -214 48 -299 61 -370 7 -41 21 -120 30 -175 9 -55 22 -136 30 -180 8 -44 21 -125 30 -180 15 -94 28 -171 60 -360 7 -44 21 -127 30 -185 9 -58 23 -141 30 -185 30 -170 55 -320 90 -540 19 -115 41 -206 61 -253 8 -18 14 -37 14 -42 0 -16 67 -153 94 -193 14 -21 26 -40 26 -43 0 -2 30 -41 66 -85 127 -153 323 -287 499 -343 28 -8 73 -23 100 -33 47 -17 185 -18 2705 -21 1460 -2 2674 0 2697 3 80 11 173 124 173 209 0 17 -8 53 -17 80 -21 57 -96 130 -144 140 -17 3 -1184 6 -2593 6 -2746 0 -2661 -1 -2796 49 -131 50 -260 156 -330 271 -55 90 -77 154 -101 285 -11 61 -27 147 -36 192 -12 67 -13 86 -3 98 11 13 344 15 2920 15 1599 0 2922 3 2939 6 45 9 123 83 142 136 9 23 24 72 34 108 10 36 23 83 30 105 7 22 20 67 29 100 10 33 23 80 31 105 7 25 21 74 30 110 10 36 23 83 30 105 7 22 21 69 30 105 10 36 23 83 30 105 7 22 20 66 29 98 8 31 22 81 31 110 8 28 22 79 31 112 9 33 22 78 29 100 7 22 20 69 30 105 9 36 23 83 30 105 7 22 20 69 30 105 9 36 23 83 30 105 7 22 20 69 30 105 9 36 23 83 30 105 7 22 20 69 30 105 9 36 23 85 30 110 8 25 21 72 31 105 9 33 22 78 29 100 7 22 20 69 30 105 9 36 23 85 30 110 8 25 21 72 31 105 9 33 22 78 29 100 7 22 20 69 30 105 18 67 35 126 59 208 8 26 18 62 21 80 4 18 13 32 21 32 11 0 14 16 14 70 0 55 -3 70 -15 70 -8 0 -17 11 -21 24 -3 13 -25 42 -48 65 -79 77 266 71 -3803 71 l-3651 0 -15 43 c-8 23 -22 67 -32 97 -16 50 -62 150 -96 211 -35 60 -132 180 -195 239 -176 166 -389 266 -617 292 -66 7 -101 15 -104 24 -4 11 -30 14 -105 14 -64 0 -97 -4 -93 -10z m8243 -1393 c2 -15 -3 -47 -11 -70 -8 -23 -22 -69 -31 -102 -10 -33 -23 -80 -31 -105 -7 -25 -20 -74 -30 -110 -9 -36 -23 -83 -30 -105 -7 -22 -20 -69 -30 -105 -9 -36 -23 -83 -30 -105 -7 -22 -20 -69 -30 -105 -9 -36 -23 -83 -30 -105 -7 -22 -20 -69 -30 -105 -9 -36 -23 -83 -29 -105 -13 -41 -35 -115 -61 -210 -27 -99 -47 -169 -60 -210 -7 -22 -20 -69 -30 -105 -9 -36 -23 -85 -30 -110 -8 -25 -21 -72 -31 -105 -9 -33 -22 -78 -29 -100 -7 -22 -20 -69 -30 -105 -9 -36 -24 -86 -31 -112 -14 -46 -22 -77 -58 -200 -9 -32 -23 -84 -32 -115 -28 -96 -48 -158 -54 -166 -10 -13 -5691 -9 -5706 4 -8 6 -14 26 -14 43 0 17 -7 67 -15 111 -8 44 -22 125 -31 180 -8 55 -22 136 -29 180 -27 153 -45 261 -60 355 -9 52 -22 138 -31 190 -8 52 -22 129 -29 170 -8 41 -21 122 -30 180 -9 58 -23 141 -30 185 -8 44 -21 125 -30 180 -9 55 -23 136 -30 180 -24 139 -43 257 -60 360 -9 55 -23 134 -30 175 -22 118 -26 172 -14 186 10 12 567 14 3453 12 l3441 -3 3 -28z"/> <path d="M2540 1790 c-274 -44 -526 -231 -654 -487 -36 -70 -54 -126 -77 -237 -57 -270 28 -560 226 -774 151 -162 333 -255 557 -282 105 -13 270 0 337 26 18 8 41 14 50 14 28 1 186 85 249 134 118 90 187 170 250 288 170 319 146 678 -65 963 -140 191 -350 321 -573 355 -66 10 -238 10 -300 0z m342 -480 c154 -76 258 -239 258 -406 0 -273 -254 -487 -523 -440 -122 21 -208 74 -282 171 -42 56 -53 78 -75 148 -56 178 23 389 185 495 86 56 152 72 277 67 84 -4 106 -8 160 -35z"/> <path d="M6585 1789 c-229 -35 -460 -185 -590 -384 -76 -115 -104 -183 -135 -317 -27 -118 -27 -259 1 -373 24 -101 27 -110 87 -234 95 -196 311 -373 533 -440 265 -79 562 -29 784 133 138 101 264 268 320 426 28 79 55 230 55 305 0 75 -25 214 -54 300 -102 297 -388 538 -696 585 -67 10 -237 10 -305 -1z m250 -449 c165 -36 291 -158 338 -326 21 -74 21 -132 2 -209 -47 -187 -187 -316 -375 -343 -141 -20 -274 25 -375 126 -62 62 -90 108 -117 192 -22 68 -24 187 -3 237 8 19 15 42 15 50 0 23 63 115 113 164 99 97 260 141 402 109z"/> </g> </svg> 